<svg width="25" height="24" viewBox="0 0 25 24" fill="none" xmlns="http://www.w3.org/2000/svg">
<path fill-rule="evenodd" clip-rule="evenodd" d="M12.5 3C7.52944 3 3.5 7.02944 3.5 12C3.5 16.9706 7.52944 21 12.5 21C17.4706 21 21.5 16.9706 21.5 12C21.5 7.02944 17.4706 3 12.5 3ZM1.5 12C1.5 5.92487 6.42487 1 12.5 1C18.5751 1 23.5 5.92487 23.5 12C23.5 18.0751 18.5751 23 12.5 23C6.42487 23 1.5 18.0751 1.5 12ZM12.5 7C13.0523 7 13.5 7.44772 13.5 8V13.5858L15.7929 11.2929C16.1834 10.9024 16.8166 10.9024 17.2071 11.2929C17.5976 11.6834 17.5976 12.3166 17.2071 12.7071L13.2071 16.7071C12.8166 17.0976 12.1834 17.0976 11.7929 16.7071L7.79289 12.7071C7.40237 12.3166 7.40237 11.6834 7.79289 11.2929C8.18342 10.9024 8.81658 10.9024 9.20711 11.2929L11.5 13.5858V8C11.5 7.44772 11.9477 7 12.5 7Z" fill="#fff"/>
</svg>
