<svg width="64" height="64" viewBox="0 0 64 64" fill="none" xmlns="http://www.w3.org/2000/svg">
<path fill-rule="evenodd" clip-rule="evenodd" d="M32.0001 7.99996C18.7452 7.99996 8.00008 18.7451 8.00008 32C8.00008 45.2548 18.7452 56 32.0001 56C45.2549 56 56.0001 45.2548 56.0001 32C56.0001 18.7451 45.2549 7.99996 32.0001 7.99996ZM2.66675 32C2.66675 15.7996 15.7997 2.66663 32.0001 2.66663C48.2004 2.66663 61.3334 15.7996 61.3334 32C61.3334 48.2003 48.2004 61.3333 32.0001 61.3333C15.7997 61.3333 2.66675 48.2003 2.66675 32ZM30.1145 23.2189C29.0731 22.1775 29.0731 20.4891 30.1145 19.4477C31.1559 18.4063 32.8443 18.4063 33.8857 19.4477L44.5524 30.1143C45.5938 31.1557 45.5938 32.8442 44.5524 33.8856L33.8857 44.5522C32.8443 45.5936 31.1559 45.5936 30.1145 44.5522C29.0731 43.5108 29.0731 41.8224 30.1145 40.781L36.2288 34.6666H21.3334C19.8607 34.6666 18.6667 33.4727 18.6667 32C18.6667 30.5272 19.8607 29.3333 21.3334 29.3333H36.2288L30.1145 23.2189Z" fill="white"/>
</svg>
