<svg width="64" height="64" viewBox="0 0 64 64" fill="none" xmlns="http://www.w3.org/2000/svg">
<path fill-rule="evenodd" clip-rule="evenodd" d="M31.9999 56C45.2548 56 55.9999 45.2549 55.9999 32C55.9999 18.7452 45.2547 8.00005 31.9999 8.00005C18.7451 8.00005 7.99992 18.7452 7.99992 32C7.99992 45.2549 18.7451 56 31.9999 56ZM61.3332 32C61.3333 48.2004 48.2003 61.3334 31.9999 61.3334C15.7996 61.3334 2.66659 48.2004 2.66659 32C2.66658 15.7997 15.7996 2.66671 31.9999 2.66671C48.2003 2.66671 61.3332 15.7997 61.3332 32ZM33.8855 40.7811C34.9269 41.8225 34.9269 43.5109 33.8855 44.5523C32.8441 45.5937 31.1557 45.5937 30.1143 44.5523L19.4476 33.8857C18.4062 32.8443 18.4062 31.1558 19.4476 30.1144L30.1143 19.4478C31.1557 18.4064 32.8441 18.4064 33.8855 19.4478C34.9269 20.4892 34.9269 22.1776 33.8855 23.219L27.7712 29.3334L42.6666 29.3334C44.1393 29.3334 45.3333 30.5273 45.3333 32C45.3333 33.4728 44.1393 34.6667 42.6666 34.6667L27.7712 34.6667L33.8855 40.7811Z" fill="white"/>
</svg>
