<svg width="32" height="32" viewBox="0 0 32 32" fill="none" xmlns="http://www.w3.org/2000/svg">
<path fill-rule="evenodd" clip-rule="evenodd" d="M16 4.00004C9.37262 4.00004 4.00004 9.37262 4.00004 16C4.00004 22.6275 9.37262 28 16 28C22.6275 28 28 22.6275 28 16C28 9.37262 22.6275 4.00004 16 4.00004ZM1.33337 16C1.33337 7.89986 7.89986 1.33337 16 1.33337C24.1002 1.33337 30.6667 7.89986 30.6667 16C30.6667 24.1002 24.1002 30.6667 16 30.6667C7.89986 30.6667 1.33337 24.1002 1.33337 16ZM16.9428 9.7239C17.4635 10.2446 17.4635 11.0888 16.9428 11.6095L13.8857 14.6667H21.3334C22.0698 14.6667 22.6667 15.2637 22.6667 16C22.6667 16.7364 22.0698 17.3334 21.3334 17.3334H13.8857L16.9428 20.3906C17.4635 20.9113 17.4635 21.7555 16.9428 22.2762C16.4221 22.7969 15.5779 22.7969 15.0572 22.2762L9.7239 16.9428C9.2032 16.4221 9.2032 15.5779 9.7239 15.0572L15.0572 9.7239C15.5779 9.2032 16.4221 9.2032 16.9428 9.7239Z" fill="#667080"/>
</svg>
