<svg width="25" height="25" viewBox="0 0 25 25" fill="none" xmlns="http://www.w3.org/2000/svg">
<path fill-rule="evenodd" clip-rule="evenodd" d="M12.5 3.5C7.52944 3.5 3.5 7.52944 3.5 12.5C3.5 17.4706 7.52944 21.5 12.5 21.5C17.4706 21.5 21.5 17.4706 21.5 12.5C21.5 7.52944 17.4706 3.5 12.5 3.5ZM1.5 12.5C1.5 6.42487 6.42487 1.5 12.5 1.5C18.5751 1.5 23.5 6.42487 23.5 12.5C23.5 18.5751 18.5751 23.5 12.5 23.5C6.42487 23.5 1.5 18.5751 1.5 12.5ZM11.7929 9.20711C11.4024 8.81658 11.4024 8.18342 11.7929 7.79289C12.1834 7.40237 12.8166 7.40237 13.2071 7.79289L17.2071 11.7929C17.5976 12.1834 17.5976 12.8166 17.2071 13.2071L13.2071 17.2071C12.8166 17.5976 12.1834 17.5976 11.7929 17.2071C11.4024 16.8166 11.4024 16.1834 11.7929 15.7929L14.0858 13.5H8.5C7.94772 13.5 7.5 13.0523 7.5 12.5C7.5 11.9477 7.94772 11.5 8.5 11.5H14.0858L11.7929 9.20711Z" fill="#1A1A1A"/>
</svg>
