<svg width="221" height="48" viewBox="0 0 221 48" fill="none" xmlns="http://www.w3.org/2000/svg">
<g clip-path="url(#clip0_45_4537)">
<path d="M97.1291 26.1349V38.5314H92.7406V26.2569C92.7406 25.7407 92.7406 25.2246 92.7218 24.7273C92.7124 24.2768 92.6373 23.8545 92.5057 23.4698C92.3272 22.8129 91.9795 22.3343 91.4438 21.9871C90.8894 21.6399 90.0342 21.4616 88.9066 21.4616C88.1548 21.4616 87.4876 21.5742 86.858 21.7525C86.2378 21.9214 85.674 22.2405 85.2417 22.5032C84.8282 22.7566 84.4993 23.0381 84.2832 23.3572C84.0764 23.6575 83.9731 23.9484 83.9731 24.2299V38.5314H79.5846V7.77946C79.5846 7.77946 80.5995 7.73254 80.7029 7.73254C81.5768 7.73254 82.3286 7.95776 82.9488 8.39882C83.6066 8.86803 83.9355 9.7126 83.9355 10.9138V19.3595C84.5839 18.8152 85.3357 18.3836 86.1908 18.0645C87.3561 17.6235 88.6153 17.4076 89.9215 17.4076C90.9458 17.4076 91.8573 17.539 92.6467 17.783C93.436 18.0364 94.122 18.3836 94.6765 18.8246C95.2309 19.2657 95.6913 19.7724 96.0578 20.3449C96.4149 20.9173 96.6781 21.5273 96.8284 22.156C96.9788 22.7378 97.0633 23.3947 97.0915 24.1079C97.1197 24.8117 97.1385 25.4874 97.1385 26.1349H97.1291Z" fill="white"/>
<path d="M140.967 23.1226C140.516 21.79 139.886 20.6921 139.106 19.8475C138.326 19.0029 137.405 18.3836 136.372 17.9988C135.357 17.6141 134.267 17.4264 133.12 17.4264C131.626 17.4264 130.358 17.6798 129.352 18.1771C128.6 18.5431 127.961 18.9748 127.454 19.4628C127.238 18.9654 126.918 18.5806 126.505 18.3273C125.95 17.9801 125.283 17.8018 124.541 17.8018C124.409 17.8018 123.338 17.8581 123.338 17.8581V47.9625H127.726V37.5273C128.046 37.7806 128.431 38.0528 128.901 38.3343C129.831 38.888 131.109 39.1695 132.697 39.1695C133.694 39.1695 134.737 38.9912 135.789 38.644C136.86 38.2874 137.838 37.668 138.712 36.8141C139.586 35.9601 140.3 34.7965 140.835 33.3513C141.371 31.9155 141.644 30.1044 141.644 27.9554C141.644 26.0598 141.418 24.4364 140.967 23.1132V23.1226ZM137.001 28.19C137.001 30.5173 136.578 32.3097 135.742 33.5296C134.925 34.7214 133.731 35.2938 132.115 35.2938C131.56 35.2938 131.044 35.2188 130.564 35.0592C130.066 34.8997 129.625 34.712 129.239 34.4962C128.863 34.2897 128.544 34.0645 128.281 33.8205C128.055 33.6141 127.877 33.417 127.726 33.2387V23.7701C127.726 23.1226 128.102 22.5689 128.873 22.0809C129.69 21.5648 130.752 21.3021 132.03 21.3021C132.97 21.3021 133.769 21.4803 134.398 21.8182C135.028 22.1654 135.535 22.6346 135.902 23.2258C136.287 23.8264 136.56 24.5677 136.738 25.4123C136.917 26.285 137.001 27.2141 137.001 28.1994V28.19Z" fill="white"/>
<path d="M75.4874 30.1513C75.4874 31.6058 75.2431 32.9102 74.7639 34.0269C74.2846 35.1437 73.5892 36.1008 72.7153 36.8703C71.8413 37.6398 70.7795 38.2217 69.5578 38.597C68.355 38.9724 67.0112 39.1695 65.5734 39.1695C63.9947 39.1695 62.5005 38.9912 61.138 38.6533C59.7566 38.3061 58.6477 37.8275 57.849 37.2363C57.0408 36.692 56.6273 36.0539 56.6273 35.3501C56.6273 34.9747 56.7589 34.5243 57.0596 33.98C57.4167 33.3231 58.2342 32.2533 58.2342 32.2533C58.2342 32.2533 60.1419 33.6985 61.6924 34.3742C62.8952 34.8997 64.2014 35.1624 65.5734 35.1624C66.6165 35.1624 67.4998 35.031 68.1858 34.7683C68.8624 34.5055 69.4075 34.1677 69.8021 33.7642C70.1968 33.3607 70.4881 32.8915 70.6667 32.3659C70.8546 31.8311 70.9392 31.268 70.9392 30.6956C70.9392 29.9636 70.8264 29.3161 70.6103 28.7718C70.3942 28.2369 70.0653 27.7677 69.6424 27.3642C69.2101 26.9607 68.6557 26.6135 67.9885 26.3225C67.3025 26.0222 66.5037 25.7313 65.611 25.4498C64.5585 25.1401 63.5342 24.7742 62.5663 24.38C61.5796 23.9765 60.6775 23.4604 59.8975 22.841C59.1082 22.2123 58.4692 21.4334 57.9899 20.5137C57.5107 19.5847 57.2663 18.4305 57.2663 17.0791C57.2663 15.7278 57.5107 14.5736 57.9993 13.5507C58.4786 12.5372 59.1552 11.6645 59.9915 10.9888C60.8185 10.3132 61.824 9.78764 62.9704 9.44043C64.1075 9.09322 65.3573 8.91492 66.6823 8.91492C67.7442 8.91492 68.9094 9.05568 70.131 9.32782C71.3715 9.59996 72.4427 10.0129 73.3167 10.5384C73.7959 10.8387 74.2094 11.1671 74.5383 11.5143C74.9236 11.9179 75.1115 12.3871 75.1115 12.9126C75.1115 13.3255 74.9518 13.7759 74.6417 14.2357C74.3598 14.6486 73.3355 15.7372 73.3355 15.7372C73.3355 15.7372 72.6307 15.1272 72.142 14.7425C71.7662 14.4516 71.3151 14.1794 70.7795 13.9261C70.2438 13.6727 69.6142 13.4475 68.9188 13.2504C68.2328 13.0627 67.481 12.9689 66.6729 12.9689C65.7332 12.9689 64.9532 13.0815 64.333 13.3067C63.7222 13.5319 63.2241 13.8135 62.8576 14.1513C62.5005 14.4891 62.228 14.8926 62.0683 15.3431C61.8991 15.8217 61.8146 16.3096 61.8146 16.7976C61.8146 17.4264 61.9461 17.98 62.1904 18.4211C62.4442 18.8715 62.8201 19.275 63.3087 19.6222C63.8162 19.9788 64.4458 20.3167 65.1787 20.617C65.9305 20.9266 66.8045 21.2363 67.7818 21.5366C68.7873 21.8557 69.7552 22.231 70.6573 22.6815C71.5782 23.1319 72.4052 23.7044 73.11 24.38C73.8241 25.0651 74.3974 25.8721 74.8296 26.8011C75.2619 27.7396 75.478 28.8657 75.478 30.1607L75.4874 30.1513Z" fill="white"/>
<path d="M162.505 10.7636C162.552 11.5049 162.289 12.1336 161.866 12.6404C161.415 13.1753 160.635 13.438 159.489 13.438H149.772V21.0955H159.376V25.1026H149.772V38.5407H145.299V9.4873H162.317C162.317 9.4873 162.458 9.90959 162.515 10.7729L162.505 10.7636Z" fill="white"/>
<path d="M119.419 24.0985C119.071 22.8129 118.508 21.668 117.746 20.6827C116.976 19.6974 115.98 18.8997 114.768 18.3085C113.555 17.7267 112.08 17.4264 110.36 17.4264C108.641 17.4264 107.278 17.7267 106.056 18.3085C104.835 18.8997 103.81 19.688 102.984 20.6733C102.166 21.6493 101.536 22.8129 101.132 24.1267C100.728 25.4311 100.521 26.8199 100.521 28.2557C100.521 29.6915 100.691 31.0804 101.038 32.3941C101.386 33.7173 101.959 34.8997 102.711 35.8944C103.482 36.8985 104.487 37.7056 105.709 38.2968C106.93 38.8786 108.424 39.1789 110.172 39.1789C111.92 39.1789 113.433 38.8692 114.664 38.2499C115.895 37.6305 116.92 36.7953 117.7 35.7631C118.479 34.7402 119.043 33.5484 119.391 32.2252C119.739 30.9208 119.917 29.5413 119.917 28.1337C119.917 26.7261 119.739 25.3654 119.391 24.0985H119.419ZM112.804 34.6651C112.136 35.0874 111.262 35.3032 110.21 35.3032C109.157 35.3032 108.349 35.0874 107.71 34.6745C107.053 34.2428 106.526 33.6891 106.132 33.0323C105.737 32.3566 105.455 31.5871 105.314 30.7331C105.164 29.8604 105.089 28.9877 105.089 28.1431C105.089 27.2985 105.173 26.454 105.352 25.6282C105.521 24.8211 105.821 24.0798 106.216 23.4229C106.611 22.7941 107.137 22.278 107.804 21.8933C108.462 21.5085 109.298 21.3114 110.304 21.3114C111.356 21.3114 112.221 21.5085 112.86 21.8933C113.508 22.278 114.016 22.7941 114.373 23.4135C114.749 24.061 115.012 24.8023 115.153 25.6188C115.303 26.454 115.378 27.2985 115.378 28.1431C115.378 28.9877 115.303 29.8604 115.153 30.7331C115.003 31.5871 114.739 32.366 114.373 33.0416C114.016 33.6985 113.48 34.2428 112.804 34.6651Z" fill="white"/>
<path d="M197.754 10.9513V39.0757C197.754 39.0757 197.049 39.1789 196.598 39.1789C195.724 39.1789 194.973 38.9537 194.362 38.4938C193.704 38.0059 193.375 37.1613 193.375 35.9601V7.83577C193.375 7.83577 194.08 7.73254 194.531 7.73254C195.405 7.73254 196.157 7.95776 196.767 8.41759C197.425 8.90556 197.754 9.75014 197.754 10.9513Z" fill="white"/>
<path d="M189.005 10.9419V39.0663C189.005 39.0663 188.301 39.1695 187.849 39.1695C186.976 39.1695 186.224 38.9443 185.613 38.4844C184.955 37.9965 184.626 37.1519 184.626 35.9507V7.82637C184.626 7.82637 185.331 7.72314 185.782 7.72314C186.656 7.72314 187.408 7.94836 188.019 8.40819C188.676 8.89617 189.005 9.74074 189.005 10.9419Z" fill="white"/>
<path d="M180.285 20.692V38.5313H175.896V37.2363C175.398 37.6492 174.797 38.034 174.101 38.3718C173.03 38.8973 171.649 39.1601 169.995 39.1601C168.341 39.1601 166.95 38.8879 165.992 38.353C165.033 37.8087 164.3 37.1049 163.83 36.2604C163.37 35.4252 163.088 34.4961 163.003 33.5014C162.919 32.5536 162.872 31.6246 162.872 30.7425V17.5108C162.872 17.5108 163.924 17.4733 164.028 17.4733C164.902 17.4733 165.653 17.6985 166.274 18.1395C166.931 18.6087 167.26 19.4627 167.26 20.6639V30.78C167.26 31.8498 167.335 32.6944 167.486 33.3137C167.617 33.8674 167.881 34.2803 168.285 34.5618C168.67 34.8434 169.083 35.031 169.516 35.1343C169.976 35.2375 170.521 35.2938 171.141 35.2938C171.856 35.2938 172.523 35.1906 173.115 34.9935C173.707 34.7964 174.224 34.5524 174.646 34.2615C175.06 33.98 175.379 33.6703 175.605 33.3607C175.802 33.0791 175.915 32.8351 175.915 32.6381V17.5108C175.915 17.5108 176.968 17.4733 177.071 17.4733C177.945 17.4733 178.697 17.7079 179.317 18.1677C179.965 18.6557 180.304 19.5096 180.304 20.7014L180.285 20.692Z" fill="white"/>
<path d="M208.561 40.014L200.864 17.98L201.222 17.8392C201.861 17.5953 202.528 17.4733 203.223 17.4733C204.069 17.4733 204.755 17.7548 205.291 18.3178C205.779 18.834 206.146 19.4533 206.39 20.1478L210.675 33.3982L214.941 20.5325C215.026 20.2228 215.148 19.885 215.289 19.5472C215.44 19.1906 215.656 18.8527 215.919 18.5431C216.191 18.224 216.53 17.9612 216.915 17.7736C217.31 17.5765 217.779 17.4826 218.315 17.4826C218.945 17.4826 219.527 17.6234 220.063 17.9049L220.364 18.0645L212.564 40.7178C212.254 41.6187 211.831 42.8011 211.465 43.6269C211.079 44.4715 210.609 45.2222 210.046 45.8604C209.472 46.4985 208.768 47.024 207.95 47.4088C207.123 47.8029 206.118 48 204.971 48C203.825 48 202.894 47.831 202.133 47.512C201.043 47.0522 200.818 46.292 200.818 45.729C200.818 45.2785 200.94 44.8093 201.175 44.3401C201.391 43.8991 201.626 43.5143 201.861 43.1953L202.114 42.8481L202.443 43.1296C202.65 43.3079 202.979 43.5237 203.411 43.7771C203.815 44.0117 204.341 44.1243 204.971 44.1243C205.845 44.1243 206.522 43.8052 207.057 43.1671C207.63 42.4727 208.063 41.5061 208.57 40.014" fill="white"/>
<path d="M22.7036 24.7085C18.7944 24.7179 14.8382 25.4123 11.2767 26.82C9.07773 27.6833 6.71904 28.9314 5.1967 30.9302C3.50521 33.1449 3.5334 35.6599 5.45982 37.8745C5.76053 38.2593 5.81692 38.7285 5.50681 39.01C5.05574 39.4229 4.27578 39.2728 3.44883 39.01C2.90379 38.8411 1.99227 38.4282 1.36266 37.6681C1.29688 37.5836 0.629679 36.9361 0.216203 35.6692C-0.197272 34.4024 6.83565e-05 32.8915 0.742445 31.4745C1.97347 29.1285 4.05964 27.5519 6.23979 26.3977C11.3237 23.742 17.2533 22.6909 23.0231 22.7097C23.0231 22.7097 23.9065 17.0604 24.3011 14.5173C25.1657 14.8645 27.2425 15.0522 27.3176 15.0428C26.9417 17.5015 26.1806 22.4282 26.1242 22.8317C26.1806 22.8317 27.6371 22.9349 28.3043 23.0194C31.7437 23.3948 35.2206 24.1736 38.4063 25.6563C40.6334 26.698 43.0297 28.1713 44.3735 30.461C47.2302 35.322 42.4753 39.5449 38.7822 41.478C33.1439 44.7531 25.1187 45.898 18.0144 45.0159C17.8077 44.9877 16.9432 44.8845 16.4827 44.7906C15.8343 44.6499 15.0167 44.4153 14.4905 43.8335C13.5978 42.8294 13.6729 42.3414 15.8343 42.6229C16.8868 42.7637 19.0199 42.9701 21.6417 42.9889C25.5604 42.9138 29.7985 42.3226 32.7586 41.4499C33.2754 41.2716 33.7829 41.0651 34.2809 40.8493C37.288 39.5449 42.184 36.6077 40.859 32.244C39.4964 27.7678 33.548 26.1162 29.8549 25.3654C28.5863 25.1027 26.3591 24.8118 25.8235 24.8118C25.6731 25.7689 25.3818 27.6833 25.3818 27.7209C26.3873 27.8053 27.374 27.9179 28.3325 28.0775C28.5205 28.115 28.8588 28.2182 29.0843 28.3308C29.7327 28.6499 29.8267 29.2036 27.2988 29.4475C26.3497 29.532 26.1524 29.532 25.8799 29.5038C25.8047 29.5038 25.1845 29.4475 25.1093 29.4382C24.9495 30.4047 24.6582 32.2253 24.6582 32.2628C25.955 32.5349 26.8572 33.1167 26.876 33.8112C26.8948 34.8153 25.0811 35.6599 22.8352 35.7068C20.5799 35.7537 18.7286 34.9936 18.7098 33.9989C18.691 33.1824 19.8939 32.4599 21.5666 32.2065C21.5666 32.1689 21.8579 30.3015 22.0176 29.2974C19.5368 29.3819 17.0371 29.9731 15.0637 31.3901C14.218 31.9907 13.1279 32.9384 13.2407 34.1115C13.2595 34.3742 13.2971 34.5525 13.4662 34.834C13.8515 35.4909 16.229 37.8839 22.6754 37.7338C28.7366 37.593 31.9974 35.2563 32.4297 34.9748C32.7868 34.7308 33.2285 34.271 33.4634 33.905C33.8111 33.2669 33.7453 32.9948 33.4164 32.1314C33.1721 31.5027 33.3224 30.095 34.779 30.8082C35.418 31.1085 35.9348 31.8217 36.0852 32.1033C37.4196 34.4775 34.591 36.739 32.3639 37.7713C28.2855 39.6669 23.3802 40.0141 19.0011 39.5449C16.9056 39.3197 14.8194 38.9255 12.8648 38.0904C11.5962 37.5555 10.1584 36.8047 9.37844 35.5472C7.62117 32.7132 10.8914 30.5173 12.9494 29.5695C15.8343 28.2464 19.0763 27.6645 22.2901 27.6082" fill="white"/>
<path d="M34.6756 7.59179C34.6756 11.7114 31.396 15.0616 27.2988 15.1742C27.2236 15.1742 27.1484 15.1742 27.0733 15.1742C26.0866 15.1742 25.1374 14.9865 24.2729 14.6393C21.4631 13.5226 19.4709 10.7824 19.4709 7.5824C19.4803 3.39707 22.8821 0 27.0733 0C31.2644 0 34.6756 3.39707 34.6756 7.59179Z" fill="white"/>
</g>
<defs>
<clipPath id="clip0_45_4537">
<rect width="220.364" height="48" fill="white"/>
</clipPath>
</defs>
</svg>
