<svg width="375" height="550" viewBox="0 0 375 550" fill="none" xmlns="http://www.w3.org/2000/svg">
<rect width="375" height="550" fill="#EEF1F4"/>
<rect x="24.5" y="17" width="326" height="62" rx="7" fill="white"/>
<path fill-rule="evenodd" clip-rule="evenodd" d="M180.5 39C179.948 39 179.5 39.4477 179.5 40V54C179.5 54.4288 179.77 54.7946 180.149 54.9367L190.793 44.2929C191.183 43.9024 191.817 43.9024 192.207 44.2929L195.5 47.5858V40C195.5 39.4477 195.052 39 194.5 39H180.5ZM197.5 49.999V40C197.5 38.3431 196.157 37 194.5 37H180.5C178.843 37 177.5 38.3431 177.5 40V54C177.5 55.6569 178.843 57 180.5 57H194.5C196.157 57 197.5 55.6569 197.5 54V50.001C197.5 50.0003 197.5 49.9997 197.5 49.999ZM195.5 50.4142L191.5 46.4142L182.914 55H194.5C195.052 55 195.5 54.5523 195.5 54V50.4142ZM184 43C183.724 43 183.5 43.2239 183.5 43.5C183.5 43.7761 183.724 44 184 44C184.276 44 184.5 43.7761 184.5 43.5C184.5 43.2239 184.276 43 184 43ZM181.5 43.5C181.5 42.1193 182.619 41 184 41C185.381 41 186.5 42.1193 186.5 43.5C186.5 44.8807 185.381 46 184 46C182.619 46 181.5 44.8807 181.5 43.5Z" fill="#667080"/>
<rect x="24.5" y="17" width="326" height="62" rx="7" stroke="#667080" stroke-width="2"/>
<path d="M156.371 107.024C155.56 107.024 155.155 106.613 155.155 105.792V97.232C155.155 96.4213 155.549 96.016 156.339 96.016C157.139 96.016 157.539 96.4213 157.539 97.232V97.28C157.763 96.8853 158.093 96.5707 158.531 96.336C158.968 96.1013 159.459 95.984 160.003 95.984C160.685 95.984 161.283 96.1493 161.795 96.48C162.317 96.8107 162.723 97.28 163.011 97.888C163.299 98.496 163.443 99.2213 163.443 100.064C163.443 100.907 163.299 101.637 163.011 102.256C162.723 102.864 162.317 103.339 161.795 103.68C161.283 104.011 160.685 104.176 160.003 104.176C159.48 104.176 159 104.064 158.563 103.84C158.136 103.616 157.805 103.317 157.571 102.944V105.792C157.571 106.613 157.171 107.024 156.371 107.024ZM159.283 102.368C159.795 102.368 160.211 102.181 160.531 101.808C160.851 101.435 161.011 100.853 161.011 100.064C161.011 99.2853 160.851 98.7147 160.531 98.352C160.211 97.9787 159.795 97.792 159.283 97.792C158.76 97.792 158.339 97.9787 158.019 98.352C157.699 98.7147 157.539 99.2853 157.539 100.064C157.539 100.853 157.699 101.435 158.019 101.808C158.339 102.181 158.76 102.368 159.283 102.368ZM166.168 104.144C165.336 104.144 164.92 103.733 164.92 102.912V97.232C164.92 96.4213 165.315 96.016 166.104 96.016C166.894 96.016 167.288 96.4213 167.288 97.232V97.52C167.672 96.5707 168.467 96.0587 169.672 95.984C169.939 95.9627 170.142 96.032 170.28 96.192C170.43 96.3413 170.51 96.592 170.52 96.944C170.542 97.2747 170.472 97.536 170.312 97.728C170.163 97.92 169.907 98.0373 169.544 98.08L169.176 98.112C167.982 98.2293 167.384 98.8373 167.384 99.936V102.912C167.384 103.733 166.979 104.144 166.168 104.144ZM175.453 104.176C174.525 104.176 173.725 104.011 173.053 103.68C172.392 103.339 171.88 102.864 171.517 102.256C171.165 101.637 170.989 100.912 170.989 100.08C170.989 99.2693 171.16 98.56 171.501 97.952C171.853 97.3333 172.328 96.8533 172.925 96.512C173.533 96.16 174.232 95.984 175.021 95.984C176.163 95.984 177.069 96.3467 177.741 97.072C178.413 97.7867 178.749 98.7573 178.749 99.984C178.749 100.389 178.499 100.592 177.997 100.592H173.293C173.379 101.211 173.603 101.664 173.965 101.952C174.339 102.229 174.851 102.368 175.501 102.368C175.757 102.368 176.045 102.341 176.365 102.288C176.696 102.224 177.011 102.117 177.309 101.968C177.619 101.819 177.88 101.792 178.093 101.888C178.307 101.973 178.451 102.123 178.525 102.336C178.611 102.549 178.611 102.773 178.525 103.008C178.451 103.232 178.275 103.419 177.997 103.568C177.624 103.771 177.208 103.92 176.749 104.016C176.301 104.123 175.869 104.176 175.453 104.176ZM175.117 97.584C174.605 97.584 174.189 97.7387 173.869 98.048C173.56 98.3573 173.368 98.7893 173.293 99.344H176.749C176.685 98.1707 176.141 97.584 175.117 97.584ZM183.163 104.176C182.693 104.176 182.208 104.133 181.707 104.048C181.216 103.963 180.768 103.819 180.363 103.616C180.096 103.477 179.92 103.301 179.835 103.088C179.76 102.875 179.76 102.667 179.835 102.464C179.909 102.261 180.043 102.112 180.235 102.016C180.427 101.909 180.651 101.909 180.907 102.016C181.344 102.197 181.744 102.325 182.107 102.4C182.48 102.475 182.837 102.512 183.179 102.512C183.627 102.512 183.957 102.443 184.171 102.304C184.384 102.155 184.491 101.963 184.491 101.728C184.491 101.355 184.219 101.12 183.675 101.024L181.995 100.72C181.323 100.603 180.811 100.363 180.459 100C180.107 99.6373 179.931 99.1627 179.931 98.576C179.931 98.0427 180.08 97.584 180.379 97.2C180.677 96.816 181.088 96.5173 181.611 96.304C182.133 96.0907 182.736 95.984 183.419 95.984C184.357 95.984 185.189 96.1653 185.915 96.528C186.16 96.6453 186.309 96.8107 186.363 97.024C186.427 97.2373 186.416 97.4453 186.331 97.648C186.245 97.8507 186.107 98.0053 185.915 98.112C185.723 98.208 185.493 98.1973 185.227 98.08C184.875 97.92 184.555 97.808 184.267 97.744C183.979 97.6693 183.707 97.632 183.451 97.632C182.971 97.632 182.624 97.712 182.411 97.872C182.197 98.0213 182.091 98.2133 182.091 98.448C182.091 98.8213 182.341 99.056 182.843 99.152L184.523 99.456C185.216 99.5733 185.744 99.808 186.107 100.16C186.469 100.501 186.651 100.971 186.651 101.568C186.651 102.389 186.331 103.029 185.691 103.488C185.051 103.947 184.208 104.176 183.163 104.176ZM192.11 104.176C191.182 104.176 190.382 104.011 189.71 103.68C189.048 103.339 188.536 102.864 188.174 102.256C187.822 101.637 187.646 100.912 187.646 100.08C187.646 99.2693 187.816 98.56 188.158 97.952C188.51 97.3333 188.984 96.8533 189.582 96.512C190.19 96.16 190.888 95.984 191.678 95.984C192.819 95.984 193.726 96.3467 194.398 97.072C195.07 97.7867 195.406 98.7573 195.406 99.984C195.406 100.389 195.155 100.592 194.654 100.592H189.95C190.035 101.211 190.259 101.664 190.622 101.952C190.995 102.229 191.507 102.368 192.158 102.368C192.414 102.368 192.702 102.341 193.022 102.288C193.352 102.224 193.667 102.117 193.966 101.968C194.275 101.819 194.536 101.792 194.75 101.888C194.963 101.973 195.107 102.123 195.182 102.336C195.267 102.549 195.267 102.773 195.182 103.008C195.107 103.232 194.931 103.419 194.654 103.568C194.28 103.771 193.864 103.92 193.406 104.016C192.958 104.123 192.526 104.176 192.11 104.176ZM191.774 97.584C191.262 97.584 190.846 97.7387 190.526 98.048C190.216 98.3573 190.024 98.7893 189.95 99.344H193.406C193.342 98.1707 192.798 97.584 191.774 97.584ZM198.027 104.144C197.216 104.144 196.811 103.733 196.811 102.912V97.232C196.811 96.4213 197.205 96.016 197.995 96.016C198.784 96.016 199.179 96.4213 199.179 97.232V97.296C199.445 96.8693 199.803 96.544 200.251 96.32C200.699 96.096 201.2 95.984 201.755 95.984C202.683 95.984 203.376 96.256 203.835 96.8C204.293 97.3333 204.523 98.16 204.523 99.28V102.912C204.523 103.733 204.117 104.144 203.307 104.144C202.923 104.144 202.624 104.037 202.411 103.824C202.208 103.611 202.107 103.307 202.107 102.912V99.392C202.107 98.848 202.005 98.4587 201.803 98.224C201.6 97.9787 201.301 97.856 200.907 97.856C200.395 97.856 199.984 98.016 199.675 98.336C199.376 98.656 199.227 99.0827 199.227 99.616V102.912C199.227 103.733 198.827 104.144 198.027 104.144ZM210.182 104.176C207.974 104.176 206.87 103.104 206.87 100.96V97.952H206.198C205.569 97.952 205.254 97.6533 205.254 97.056C205.254 96.448 205.569 96.144 206.198 96.144H206.87V94.928C206.87 94.1067 207.276 93.696 208.086 93.696C208.886 93.696 209.286 94.1067 209.286 94.928V96.144H210.806C211.425 96.144 211.734 96.448 211.734 97.056C211.734 97.6533 211.425 97.952 210.806 97.952H209.286V100.864C209.286 101.312 209.388 101.648 209.59 101.872C209.804 102.096 210.14 102.208 210.598 102.208C210.758 102.208 210.908 102.192 211.046 102.16C211.185 102.128 211.313 102.107 211.43 102.096C211.58 102.085 211.702 102.133 211.798 102.24C211.894 102.347 211.942 102.565 211.942 102.896C211.942 103.163 211.9 103.392 211.814 103.584C211.729 103.765 211.58 103.899 211.366 103.984C211.228 104.037 211.036 104.08 210.79 104.112C210.556 104.155 210.353 104.176 210.182 104.176ZM215.451 104.176C214.865 104.176 214.347 104.064 213.899 103.84C213.451 103.616 213.094 103.312 212.827 102.928C212.571 102.544 212.443 102.112 212.443 101.632C212.443 101.067 212.593 100.613 212.891 100.272C213.19 99.9307 213.675 99.6907 214.347 99.552C215.019 99.4027 215.91 99.328 217.019 99.328H217.595V99.056C217.595 98.5867 217.489 98.256 217.275 98.064C217.062 97.8613 216.699 97.76 216.187 97.76C215.899 97.76 215.585 97.7973 215.243 97.872C214.902 97.936 214.534 98.048 214.139 98.208C213.841 98.336 213.59 98.3467 213.387 98.24C213.185 98.1227 213.051 97.952 212.987 97.728C212.923 97.4933 212.939 97.2587 213.035 97.024C213.142 96.7893 213.345 96.6187 213.643 96.512C214.145 96.32 214.614 96.1867 215.051 96.112C215.499 96.0267 215.91 95.984 216.283 95.984C217.499 95.984 218.406 96.2613 219.003 96.816C219.601 97.36 219.899 98.208 219.899 99.36V102.912C219.899 103.733 219.526 104.144 218.779 104.144C218.022 104.144 217.643 103.733 217.643 102.912V102.816C217.483 103.232 217.211 103.563 216.827 103.808C216.454 104.053 215.995 104.176 215.451 104.176ZM215.995 102.56C216.443 102.56 216.822 102.405 217.131 102.096C217.441 101.787 217.595 101.387 217.595 100.896V100.576H217.035C216.214 100.576 215.633 100.651 215.291 100.8C214.95 100.939 214.779 101.184 214.779 101.536C214.779 101.835 214.881 102.08 215.083 102.272C215.297 102.464 215.601 102.56 215.995 102.56Z" fill="#1A1A1A"/>
<rect x="24.5" y="119" width="326" height="326" rx="7" fill="white"/>
<path fill-rule="evenodd" clip-rule="evenodd" d="M180.5 273C179.948 273 179.5 273.448 179.5 274V288C179.5 288.429 179.77 288.795 180.149 288.937L190.793 278.293C191.183 277.902 191.817 277.902 192.207 278.293L195.5 281.586V274C195.5 273.448 195.052 273 194.5 273H180.5ZM197.5 283.999V274C197.5 272.343 196.157 271 194.5 271H180.5C178.843 271 177.5 272.343 177.5 274V288C177.5 289.657 178.843 291 180.5 291H194.5C196.157 291 197.5 289.657 197.5 288V284.001C197.5 284 197.5 284 197.5 283.999ZM195.5 284.414L191.5 280.414L182.914 289H194.5C195.052 289 195.5 288.552 195.5 288V284.414ZM184 277C183.724 277 183.5 277.224 183.5 277.5C183.5 277.776 183.724 278 184 278C184.276 278 184.5 277.776 184.5 277.5C184.5 277.224 184.276 277 184 277ZM181.5 277.5C181.5 276.119 182.619 275 184 275C185.381 275 186.5 276.119 186.5 277.5C186.5 278.881 185.381 280 184 280C182.619 280 181.5 278.881 181.5 277.5Z" fill="#667080"/>
<rect x="24.5" y="119" width="326" height="326" rx="7" stroke="#667080" stroke-width="2"/>
<g filter="url(#filter0_d_98_4254)">
<rect x="23.5" y="462" width="328" height="48" rx="8" fill="#667080" shape-rendering="crispEdges"/>
<path d="M159.628 490.5C158.872 490.5 158.494 490.122 158.494 489.366V481.764C158.494 481.008 158.872 480.63 159.628 480.63H163.016C164.071 480.63 164.883 480.859 165.452 481.316C166.031 481.773 166.32 482.399 166.32 483.192C166.32 483.715 166.189 484.167 165.928 484.55C165.667 484.923 165.303 485.203 164.836 485.39C165.396 485.549 165.825 485.829 166.124 486.23C166.432 486.631 166.586 487.126 166.586 487.714C166.586 488.591 166.278 489.277 165.662 489.772C165.055 490.257 164.225 490.5 163.17 490.5H159.628ZM160.566 484.69H162.638C163.702 484.69 164.234 484.279 164.234 483.458C164.234 482.646 163.702 482.24 162.638 482.24H160.566V484.69ZM160.566 488.89H162.876C163.436 488.89 163.847 488.783 164.108 488.568C164.369 488.353 164.5 488.027 164.5 487.588C164.5 487.159 164.369 486.837 164.108 486.622C163.847 486.407 163.436 486.3 162.876 486.3H160.566V488.89ZM172.456 490.654C171.056 490.654 169.988 490.295 169.25 489.576C168.522 488.857 168.158 487.789 168.158 486.37V481.61C168.158 481.255 168.252 480.985 168.438 480.798C168.625 480.602 168.896 480.504 169.25 480.504C169.969 480.504 170.328 480.873 170.328 481.61V486.384C170.328 487.187 170.51 487.793 170.874 488.204C171.238 488.605 171.766 488.806 172.456 488.806C173.866 488.806 174.57 487.999 174.57 486.384V481.61C174.57 480.873 174.93 480.504 175.648 480.504C175.994 480.504 176.255 480.602 176.432 480.798C176.619 480.985 176.712 481.255 176.712 481.61V486.37C176.712 487.789 176.353 488.857 175.634 489.576C174.916 490.295 173.856 490.654 172.456 490.654ZM182.077 490.626C181.722 490.626 181.451 490.528 181.265 490.332C181.078 490.136 180.985 489.861 180.985 489.506V482.422H178.507C177.9 482.422 177.597 482.123 177.597 481.526C177.597 480.929 177.9 480.63 178.507 480.63H185.633C186.239 480.63 186.543 480.929 186.543 481.526C186.543 482.123 186.239 482.422 185.633 482.422H183.155V489.506C183.155 489.861 183.061 490.136 182.875 490.332C182.697 490.528 182.431 490.626 182.077 490.626ZM191.114 490.626C190.759 490.626 190.488 490.528 190.302 490.332C190.115 490.136 190.022 489.861 190.022 489.506V482.422H187.544C186.937 482.422 186.634 482.123 186.634 481.526C186.634 480.929 186.937 480.63 187.544 480.63H194.67C195.276 480.63 195.58 480.929 195.58 481.526C195.58 482.123 195.276 482.422 194.67 482.422H192.192V489.506C192.192 489.861 192.098 490.136 191.912 490.332C191.734 490.528 191.468 490.626 191.114 490.626ZM200.506 490.654C199.535 490.654 198.681 490.444 197.944 490.024C197.216 489.595 196.646 489.002 196.236 488.246C195.834 487.481 195.634 486.585 195.634 485.558C195.634 484.531 195.834 483.64 196.236 482.884C196.646 482.119 197.216 481.526 197.944 481.106C198.672 480.686 199.526 480.476 200.506 480.476C201.486 480.476 202.34 480.686 203.068 481.106C203.805 481.526 204.374 482.119 204.776 482.884C205.186 483.64 205.392 484.527 205.392 485.544C205.392 486.571 205.186 487.467 204.776 488.232C204.374 488.997 203.805 489.595 203.068 490.024C202.34 490.444 201.486 490.654 200.506 490.654ZM200.506 488.806C201.327 488.806 201.966 488.521 202.424 487.952C202.89 487.373 203.124 486.575 203.124 485.558C203.124 484.531 202.895 483.738 202.438 483.178C201.98 482.609 201.336 482.324 200.506 482.324C199.694 482.324 199.054 482.609 198.588 483.178C198.13 483.738 197.902 484.531 197.902 485.558C197.902 486.575 198.13 487.373 198.588 487.952C199.054 488.521 199.694 488.806 200.506 488.806ZM208.078 490.626C207.406 490.626 207.07 490.276 207.07 489.576V481.596C207.07 481.241 207.154 480.971 207.322 480.784C207.5 480.597 207.733 480.504 208.022 480.504C208.265 480.504 208.456 480.555 208.596 480.658C208.736 480.751 208.895 480.91 209.072 481.134L213.608 486.916V481.54C213.608 480.849 213.944 480.504 214.616 480.504C215.288 480.504 215.624 480.849 215.624 481.54V489.618C215.624 489.926 215.545 490.173 215.386 490.36C215.228 490.537 215.013 490.626 214.742 490.626C214.481 490.626 214.271 490.575 214.112 490.472C213.963 490.369 213.8 490.206 213.622 489.982L209.086 484.2V489.576C209.086 490.276 208.75 490.626 208.078 490.626Z" fill="white"/>
</g>
<circle cx="179.5" cy="530" r="4" fill="#667080"/>
<circle cx="195.5" cy="530" r="4" fill="#BAC0CA"/>
<defs>
<filter id="filter0_d_98_4254" x="17.5" y="457" width="340" height="60" filterUnits="userSpaceOnUse" color-interpolation-filters="sRGB">
<feFlood flood-opacity="0" result="BackgroundImageFix"/>
<feColorMatrix in="SourceAlpha" type="matrix" values="0 0 0 0 0 0 0 0 0 0 0 0 0 0 0 0 0 0 127 0" result="hardAlpha"/>
<feOffset dy="1"/>
<feGaussianBlur stdDeviation="3"/>
<feComposite in2="hardAlpha" operator="out"/>
<feColorMatrix type="matrix" values="0 0 0 0 0 0 0 0 0 0 0 0 0 0 0 0 0 0 0.2 0"/>
<feBlend mode="normal" in2="BackgroundImageFix" result="effect1_dropShadow_98_4254"/>
<feBlend mode="normal" in="SourceGraphic" in2="effect1_dropShadow_98_4254" result="shape"/>
</filter>
</defs>
</svg>
