<svg width="375" height="110" viewBox="0 0 375 110" fill="none" xmlns="http://www.w3.org/2000/svg">
<path d="M96.714 14.098C96.5367 14.098 96.3967 14.0467 96.294 13.944C96.1913 13.832 96.14 13.6827 96.14 13.496V5.124H92.99C92.822 5.124 92.6913 5.07733 92.598 4.984C92.5047 4.89067 92.458 4.76933 92.458 4.62C92.458 4.46133 92.5047 4.34 92.598 4.256C92.6913 4.172 92.822 4.13 92.99 4.13H100.452C100.62 4.13 100.751 4.172 100.844 4.256C100.937 4.34 100.984 4.46133 100.984 4.62C100.984 4.77867 100.937 4.90467 100.844 4.998C100.751 5.082 100.62 5.124 100.452 5.124H97.302V13.496C97.302 13.6827 97.2507 13.832 97.148 13.944C97.0547 14.0467 96.91 14.098 96.714 14.098ZM102.915 14.07C102.728 14.07 102.588 14.0187 102.495 13.916C102.402 13.804 102.355 13.65 102.355 13.454V7.728C102.355 7.532 102.402 7.38267 102.495 7.28C102.588 7.17733 102.728 7.126 102.915 7.126C103.092 7.126 103.232 7.17733 103.335 7.28C103.438 7.38267 103.489 7.532 103.489 7.728V13.454C103.489 13.65 103.438 13.804 103.335 13.916C103.242 14.0187 103.102 14.07 102.915 14.07ZM102.915 5.558C102.682 5.558 102.5 5.49733 102.369 5.376C102.238 5.24533 102.173 5.07267 102.173 4.858C102.173 4.634 102.238 4.466 102.369 4.354C102.5 4.23267 102.682 4.172 102.915 4.172C103.158 4.172 103.34 4.23267 103.461 4.354C103.592 4.466 103.657 4.634 103.657 4.858C103.657 5.07267 103.592 5.24533 103.461 5.376C103.34 5.49733 103.158 5.558 102.915 5.558ZM111.948 14.126C111.416 14.126 110.968 14.0327 110.604 13.846C110.25 13.65 109.984 13.37 109.806 13.006C109.629 12.6327 109.54 12.18 109.54 11.648V8.078H108.602C108.444 8.078 108.322 8.04067 108.238 7.966C108.154 7.882 108.112 7.77 108.112 7.63C108.112 7.49 108.154 7.38267 108.238 7.308C108.322 7.23333 108.444 7.196 108.602 7.196H109.54V5.586C109.54 5.39933 109.592 5.25933 109.694 5.166C109.797 5.06333 109.937 5.012 110.114 5.012C110.292 5.012 110.427 5.06333 110.52 5.166C110.623 5.25933 110.674 5.39933 110.674 5.586V7.196H112.438C112.597 7.196 112.718 7.23333 112.802 7.308C112.886 7.38267 112.928 7.49 112.928 7.63C112.928 7.77 112.886 7.882 112.802 7.966C112.718 8.04067 112.597 8.078 112.438 8.078H110.674V11.536C110.674 12.068 110.786 12.474 111.01 12.754C111.234 13.0247 111.598 13.16 112.102 13.16C112.28 13.16 112.429 13.1413 112.55 13.104C112.681 13.0667 112.788 13.048 112.872 13.048C112.956 13.0387 113.026 13.0667 113.082 13.132C113.138 13.1973 113.166 13.3093 113.166 13.468C113.166 13.58 113.143 13.6827 113.096 13.776C113.059 13.8693 112.989 13.9347 112.886 13.972C112.774 14.0093 112.625 14.042 112.438 14.07C112.261 14.1073 112.098 14.126 111.948 14.126ZM114.687 14.098C114.5 14.098 114.355 14.0467 114.253 13.944C114.159 13.8413 114.113 13.6967 114.113 13.51V7.672C114.113 7.48533 114.159 7.34533 114.253 7.252C114.346 7.14933 114.481 7.098 114.659 7.098C114.836 7.098 114.971 7.14933 115.065 7.252C115.167 7.34533 115.219 7.48533 115.219 7.672V8.806H115.079C115.228 8.25533 115.513 7.83067 115.933 7.532C116.353 7.23333 116.871 7.07467 117.487 7.056C117.627 7.04667 117.739 7.07933 117.823 7.154C117.907 7.21933 117.953 7.336 117.963 7.504C117.972 7.66267 117.935 7.78867 117.851 7.882C117.767 7.97533 117.636 8.03133 117.459 8.05L117.235 8.078C116.6 8.134 116.11 8.33933 115.765 8.694C115.429 9.03933 115.261 9.51533 115.261 10.122V13.51C115.261 13.6967 115.209 13.8413 115.107 13.944C115.013 14.0467 114.873 14.098 114.687 14.098ZM121.876 14.126C121.214 14.126 120.64 13.9813 120.154 13.692C119.669 13.4027 119.291 12.9967 119.02 12.474C118.759 11.942 118.628 11.3167 118.628 10.598C118.628 10.0567 118.703 9.57133 118.852 9.142C119.002 8.70333 119.221 8.33 119.51 8.022C119.8 7.714 120.14 7.48067 120.532 7.322C120.934 7.154 121.382 7.07 121.876 7.07C122.539 7.07 123.113 7.21467 123.598 7.504C124.084 7.79333 124.457 8.204 124.718 8.736C124.989 9.25867 125.124 9.87933 125.124 10.598C125.124 11.1393 125.05 11.6247 124.9 12.054C124.751 12.4833 124.532 12.8567 124.242 13.174C123.953 13.482 123.608 13.72 123.206 13.888C122.814 14.0467 122.371 14.126 121.876 14.126ZM121.876 13.216C122.296 13.216 122.665 13.1133 122.982 12.908C123.3 12.7027 123.542 12.404 123.71 12.012C123.888 11.62 123.976 11.1487 123.976 10.598C123.976 9.74867 123.785 9.1 123.402 8.652C123.029 8.204 122.52 7.98 121.876 7.98C121.447 7.98 121.074 8.08267 120.756 8.288C120.448 8.484 120.206 8.778 120.028 9.17C119.86 9.55267 119.776 10.0287 119.776 10.598C119.776 11.438 119.968 12.0867 120.35 12.544C120.733 12.992 121.242 13.216 121.876 13.216ZM129.266 14.098C129.107 14.098 128.967 14.056 128.846 13.972C128.725 13.8787 128.622 13.7387 128.538 13.552L126.116 7.896C126.051 7.756 126.027 7.62533 126.046 7.504C126.065 7.38267 126.121 7.28467 126.214 7.21C126.307 7.13533 126.438 7.098 126.606 7.098C126.755 7.098 126.872 7.13067 126.956 7.196C127.04 7.26133 127.115 7.378 127.18 7.546L129.476 13.16H129.098L131.436 7.546C131.501 7.378 131.576 7.26133 131.66 7.196C131.744 7.13067 131.865 7.098 132.024 7.098C132.173 7.098 132.285 7.13533 132.36 7.21C132.444 7.28467 132.491 7.38267 132.5 7.504C132.519 7.616 132.5 7.742 132.444 7.882L129.994 13.552C129.929 13.7387 129.831 13.8787 129.7 13.972C129.579 14.056 129.434 14.098 129.266 14.098ZM134.497 14.07C134.31 14.07 134.17 14.0187 134.077 13.916C133.984 13.804 133.937 13.65 133.937 13.454V7.728C133.937 7.532 133.984 7.38267 134.077 7.28C134.17 7.17733 134.31 7.126 134.497 7.126C134.674 7.126 134.814 7.17733 134.917 7.28C135.02 7.38267 135.071 7.532 135.071 7.728V13.454C135.071 13.65 135.02 13.804 134.917 13.916C134.824 14.0187 134.684 14.07 134.497 14.07ZM134.497 5.558C134.264 5.558 134.082 5.49733 133.951 5.376C133.82 5.24533 133.755 5.07267 133.755 4.858C133.755 4.634 133.82 4.466 133.951 4.354C134.082 4.23267 134.264 4.172 134.497 4.172C134.74 4.172 134.922 4.23267 135.043 4.354C135.174 4.466 135.239 4.634 135.239 4.858C135.239 5.07267 135.174 5.24533 135.043 5.376C134.922 5.49733 134.74 5.558 134.497 5.558ZM142.942 14.126C142.476 14.126 142.056 14.0373 141.682 13.86C141.318 13.6733 141.029 13.4213 140.814 13.104C140.6 12.7867 140.492 12.432 140.492 12.04C140.492 11.536 140.618 11.1393 140.87 10.85C141.132 10.5607 141.556 10.3553 142.144 10.234C142.742 10.1127 143.554 10.052 144.58 10.052H145.21V10.794H144.594C143.838 10.794 143.241 10.8313 142.802 10.906C142.373 10.9713 142.07 11.088 141.892 11.256C141.724 11.424 141.64 11.662 141.64 11.97C141.64 12.3527 141.771 12.6653 142.032 12.908C142.303 13.1507 142.667 13.272 143.124 13.272C143.498 13.272 143.824 13.1833 144.104 13.006C144.394 12.8287 144.618 12.586 144.776 12.278C144.944 11.97 145.028 11.6153 145.028 11.214V9.618C145.028 9.03933 144.912 8.624 144.678 8.372C144.445 8.11067 144.062 7.98 143.53 7.98C143.204 7.98 142.877 8.022 142.55 8.106C142.224 8.19 141.878 8.32533 141.514 8.512C141.384 8.57733 141.272 8.60067 141.178 8.582C141.085 8.554 141.01 8.50267 140.954 8.428C140.898 8.35333 140.866 8.26933 140.856 8.176C140.847 8.07333 140.866 7.97533 140.912 7.882C140.968 7.78867 141.052 7.714 141.164 7.658C141.575 7.45267 141.981 7.30333 142.382 7.21C142.784 7.11667 143.166 7.07 143.53 7.07C144.118 7.07 144.604 7.168 144.986 7.364C145.369 7.55067 145.654 7.84 145.84 8.232C146.027 8.61467 146.12 9.10933 146.12 9.716V13.51C146.12 13.6967 146.074 13.8413 145.98 13.944C145.896 14.0467 145.77 14.098 145.602 14.098C145.425 14.098 145.29 14.0467 145.196 13.944C145.103 13.8413 145.056 13.6967 145.056 13.51V12.418H145.182C145.108 12.7727 144.963 13.076 144.748 13.328C144.543 13.58 144.286 13.776 143.978 13.916C143.67 14.056 143.325 14.126 142.942 14.126ZM152.898 14C152.534 14 152.254 13.902 152.058 13.706C151.862 13.51 151.764 13.23 151.764 12.866V5.264C151.764 4.9 151.862 4.62 152.058 4.424C152.254 4.228 152.534 4.13 152.898 4.13H156.286C156.986 4.13 157.583 4.23267 158.078 4.438C158.572 4.64333 158.946 4.93733 159.198 5.32C159.459 5.70267 159.59 6.16 159.59 6.692C159.59 7.28 159.422 7.77933 159.086 8.19C158.75 8.60067 158.288 8.876 157.7 9.016V8.792C158.381 8.91333 158.908 9.184 159.282 9.604C159.664 10.0147 159.856 10.5513 159.856 11.214C159.856 12.0913 159.552 12.7773 158.946 13.272C158.339 13.7573 157.504 14 156.44 14H152.898ZM153.836 12.39H156.146C156.706 12.39 157.116 12.2827 157.378 12.068C157.639 11.844 157.77 11.5173 157.77 11.088C157.77 10.6587 157.639 10.3367 157.378 10.122C157.116 9.90733 156.706 9.8 156.146 9.8H153.836V12.39ZM153.836 8.19H155.908C156.449 8.19 156.85 8.08733 157.112 7.882C157.373 7.67667 157.504 7.36867 157.504 6.958C157.504 6.55667 157.373 6.25333 157.112 6.048C156.85 5.84267 156.449 5.74 155.908 5.74H153.836V8.19ZM164.62 14.154C163.883 14.154 163.239 14.0093 162.688 13.72C162.147 13.4307 161.727 13.0153 161.428 12.474C161.129 11.9327 160.98 11.2933 160.98 10.556C160.98 10.0053 161.064 9.51067 161.232 9.072C161.4 8.63333 161.643 8.26 161.96 7.952C162.287 7.63467 162.674 7.39667 163.122 7.238C163.57 7.07 164.069 6.986 164.62 6.986C165.357 6.986 165.997 7.13067 166.538 7.42C167.089 7.70933 167.513 8.12 167.812 8.652C168.12 9.184 168.274 9.81867 168.274 10.556C168.274 11.116 168.185 11.6153 168.008 12.054C167.84 12.4927 167.597 12.8707 167.28 13.188C166.963 13.5053 166.575 13.748 166.118 13.916C165.67 14.0747 165.171 14.154 164.62 14.154ZM164.62 12.572C164.928 12.572 165.194 12.4973 165.418 12.348C165.642 12.1987 165.819 11.9793 165.95 11.69C166.081 11.3913 166.146 11.0133 166.146 10.556C166.146 9.87467 166.006 9.37533 165.726 9.058C165.446 8.73133 165.077 8.568 164.62 8.568C164.321 8.568 164.055 8.638 163.822 8.778C163.598 8.918 163.421 9.13733 163.29 9.436C163.169 9.72533 163.108 10.0987 163.108 10.556C163.108 11.2373 163.248 11.746 163.528 12.082C163.808 12.4087 164.172 12.572 164.62 12.572ZM172.038 14.154C171.207 14.154 170.587 13.9253 170.176 13.468C169.765 13.0013 169.56 12.3107 169.56 11.396V5.082C169.56 4.72733 169.649 4.46133 169.826 4.284C170.013 4.09733 170.279 4.004 170.624 4.004C170.96 4.004 171.217 4.09733 171.394 4.284C171.581 4.46133 171.674 4.72733 171.674 5.082V11.312C171.674 11.6947 171.753 11.9793 171.912 12.166C172.08 12.3433 172.299 12.432 172.57 12.432C172.645 12.432 172.715 12.4273 172.78 12.418C172.845 12.4087 172.915 12.404 172.99 12.404C173.139 12.3853 173.242 12.432 173.298 12.544C173.363 12.6467 173.396 12.8567 173.396 13.174C173.396 13.454 173.34 13.6687 173.228 13.818C173.116 13.958 172.943 14.0513 172.71 14.098C172.617 14.1073 172.509 14.1167 172.388 14.126C172.267 14.1447 172.15 14.154 172.038 14.154ZM177.458 14.154C176.72 14.154 176.076 14.0093 175.526 13.72C174.984 13.4307 174.564 13.0153 174.266 12.474C173.967 11.9327 173.818 11.2933 173.818 10.556C173.818 10.0053 173.902 9.51067 174.07 9.072C174.238 8.63333 174.48 8.26 174.798 7.952C175.124 7.63467 175.512 7.39667 175.96 7.238C176.408 7.07 176.907 6.986 177.458 6.986C178.195 6.986 178.834 7.13067 179.376 7.42C179.926 7.70933 180.351 8.12 180.65 8.652C180.958 9.184 181.112 9.81867 181.112 10.556C181.112 11.116 181.023 11.6153 180.846 12.054C180.678 12.4927 180.435 12.8707 180.118 13.188C179.8 13.5053 179.413 13.748 178.956 13.916C178.508 14.0747 178.008 14.154 177.458 14.154ZM177.458 12.572C177.766 12.572 178.032 12.4973 178.256 12.348C178.48 12.1987 178.657 11.9793 178.788 11.69C178.918 11.3913 178.984 11.0133 178.984 10.556C178.984 9.87467 178.844 9.37533 178.564 9.058C178.284 8.73133 177.915 8.568 177.458 8.568C177.159 8.568 176.893 8.638 176.66 8.778C176.436 8.918 176.258 9.13733 176.128 9.436C176.006 9.72533 175.946 10.0987 175.946 10.556C175.946 11.2373 176.086 11.746 176.366 12.082C176.646 12.4087 177.01 12.572 177.458 12.572ZM185.702 16.674C185.198 16.674 184.713 16.632 184.246 16.548C183.789 16.464 183.383 16.338 183.028 16.17C182.813 16.0767 182.659 15.9553 182.566 15.806C182.482 15.6567 182.445 15.498 182.454 15.33C182.473 15.162 182.529 15.0127 182.622 14.882C182.725 14.7513 182.851 14.658 183 14.602C183.149 14.5553 183.308 14.5693 183.476 14.644C183.887 14.8307 184.265 14.952 184.61 15.008C184.965 15.064 185.268 15.092 185.52 15.092C186.117 15.092 186.565 14.9567 186.864 14.686C187.163 14.4153 187.312 14 187.312 13.44V12.376H187.438C187.298 12.8053 187.009 13.1553 186.57 13.426C186.131 13.6967 185.646 13.832 185.114 13.832C184.498 13.832 183.961 13.692 183.504 13.412C183.047 13.1227 182.692 12.7213 182.44 12.208C182.188 11.6853 182.062 11.0833 182.062 10.402C182.062 9.88867 182.132 9.422 182.272 9.002C182.421 8.582 182.627 8.22267 182.888 7.924C183.159 7.62533 183.481 7.39667 183.854 7.238C184.237 7.07 184.657 6.986 185.114 6.986C185.665 6.986 186.15 7.12133 186.57 7.392C186.999 7.65333 187.284 7.99867 187.424 8.428L187.284 8.876V8.078C187.284 7.73267 187.373 7.47133 187.55 7.294C187.737 7.10733 187.998 7.014 188.334 7.014C188.67 7.014 188.927 7.10733 189.104 7.294C189.281 7.47133 189.37 7.73267 189.37 8.078V13.202C189.37 14.35 189.053 15.2133 188.418 15.792C187.793 16.38 186.887 16.674 185.702 16.674ZM185.744 12.25C186.061 12.25 186.332 12.1753 186.556 12.026C186.789 11.8767 186.971 11.6667 187.102 11.396C187.233 11.116 187.298 10.7847 187.298 10.402C187.298 9.82333 187.153 9.37533 186.864 9.058C186.584 8.73133 186.211 8.568 185.744 8.568C185.427 8.568 185.151 8.64267 184.918 8.792C184.685 8.932 184.503 9.142 184.372 9.422C184.251 9.69267 184.19 10.0193 184.19 10.402C184.19 10.9807 184.33 11.4333 184.61 11.76C184.89 12.0867 185.268 12.25 185.744 12.25ZM192.075 14.126C191.73 14.126 191.464 14.0327 191.277 13.846C191.1 13.6593 191.011 13.3933 191.011 13.048V8.078C191.011 7.73267 191.1 7.47133 191.277 7.294C191.464 7.10733 191.721 7.014 192.047 7.014C192.383 7.014 192.64 7.10733 192.817 7.294C192.995 7.47133 193.083 7.73267 193.083 8.078V8.876L192.929 8.414C193.144 7.95667 193.461 7.60667 193.881 7.364C194.311 7.112 194.796 6.986 195.337 6.986C195.888 6.986 196.341 7.09333 196.695 7.308C197.05 7.51333 197.316 7.83067 197.493 8.26C197.671 8.68 197.759 9.21667 197.759 9.87V13.048C197.759 13.3933 197.666 13.6593 197.479 13.846C197.302 14.0327 197.041 14.126 196.695 14.126C196.359 14.126 196.098 14.0327 195.911 13.846C195.734 13.6593 195.645 13.3933 195.645 13.048V9.968C195.645 9.492 195.557 9.15133 195.379 8.946C195.211 8.73133 194.95 8.624 194.595 8.624C194.147 8.624 193.788 8.764 193.517 9.044C193.256 9.324 193.125 9.69733 193.125 10.164V13.048C193.125 13.7667 192.775 14.126 192.075 14.126ZM201.661 14.154C201.157 14.154 200.705 14.056 200.303 13.86C199.902 13.664 199.589 13.398 199.365 13.062C199.141 12.726 199.029 12.348 199.029 11.928C199.029 11.424 199.16 11.0273 199.421 10.738C199.683 10.4393 200.107 10.2293 200.695 10.108C201.283 9.97733 202.063 9.912 203.033 9.912H203.775V11.004H203.047C202.571 11.004 202.184 11.032 201.885 11.088C201.596 11.1347 201.386 11.2187 201.255 11.34C201.134 11.4613 201.073 11.6293 201.073 11.844C201.073 12.1053 201.162 12.32 201.339 12.488C201.526 12.656 201.792 12.74 202.137 12.74C202.408 12.74 202.646 12.6793 202.851 12.558C203.066 12.4273 203.234 12.2547 203.355 12.04C203.477 11.816 203.537 11.564 203.537 11.284V9.674C203.537 9.26333 203.444 8.974 203.257 8.806C203.071 8.62867 202.753 8.54 202.305 8.54C202.053 8.54 201.778 8.57267 201.479 8.638C201.19 8.694 200.868 8.792 200.513 8.932C200.308 9.02533 200.126 9.04867 199.967 9.002C199.809 8.946 199.687 8.85267 199.603 8.722C199.519 8.582 199.477 8.43267 199.477 8.274C199.477 8.106 199.524 7.94733 199.617 7.798C199.711 7.63933 199.865 7.52267 200.079 7.448C200.518 7.27067 200.929 7.14933 201.311 7.084C201.703 7.01867 202.063 6.986 202.389 6.986C203.108 6.986 203.696 7.09333 204.153 7.308C204.62 7.51333 204.97 7.83533 205.203 8.274C205.437 8.70333 205.553 9.25867 205.553 9.94V13.048C205.553 13.3933 205.469 13.6593 205.301 13.846C205.133 14.0327 204.891 14.126 204.573 14.126C204.256 14.126 204.009 14.0327 203.831 13.846C203.663 13.6593 203.579 13.3933 203.579 13.048V12.53L203.677 12.614C203.621 12.9313 203.5 13.2067 203.313 13.44C203.136 13.664 202.907 13.8413 202.627 13.972C202.347 14.0933 202.025 14.154 201.661 14.154ZM211.867 11.074C211.633 11.074 211.433 10.9947 211.265 10.836C211.106 10.6773 211.027 10.4813 211.027 10.248C211.027 10.0053 211.106 9.80467 211.265 9.646C211.433 9.48733 211.633 9.408 211.867 9.408H214.751C214.984 9.408 215.18 9.48733 215.339 9.646C215.507 9.80467 215.591 10.0053 215.591 10.248C215.591 10.4813 215.507 10.6773 215.339 10.836C215.18 10.9947 214.984 11.074 214.751 11.074H211.867ZM226.045 14.126C225.709 14.126 225.443 14.0327 225.247 13.846C225.06 13.6593 224.967 13.3887 224.967 13.034V12.236H221.831C221.485 12.236 221.21 12.1613 221.005 12.012C220.799 11.8533 220.697 11.6153 220.697 11.298C220.697 11.1113 220.739 10.92 220.823 10.724C220.907 10.528 221.056 10.2853 221.271 9.996L224.897 4.718C225.055 4.48467 225.233 4.30733 225.429 4.186C225.625 4.06467 225.849 4.004 226.101 4.004C226.399 4.004 226.637 4.09733 226.815 4.284C227.001 4.46133 227.095 4.732 227.095 5.096V10.528H227.613C227.921 10.528 228.154 10.6027 228.313 10.752C228.471 10.892 228.551 11.102 228.551 11.382C228.551 11.6527 228.471 11.8627 228.313 12.012C228.163 12.1613 227.93 12.236 227.613 12.236H227.095V13.034C227.095 13.3887 227.001 13.6593 226.815 13.846C226.637 14.0327 226.381 14.126 226.045 14.126ZM224.967 10.528V6.678H225.373L222.391 11.06V10.528H224.967ZM232.899 14.154C231.705 14.154 230.79 13.7107 230.155 12.824C229.53 11.928 229.217 10.6633 229.217 9.03C229.217 7.938 229.357 7.01867 229.637 6.272C229.927 5.516 230.342 4.94667 230.883 4.564C231.434 4.172 232.106 3.976 232.899 3.976C234.103 3.976 235.018 4.41 235.643 5.278C236.269 6.13667 236.581 7.38733 236.581 9.03C236.581 10.122 236.437 11.0507 236.147 11.816C235.867 12.572 235.457 13.1507 234.915 13.552C234.374 13.9533 233.702 14.154 232.899 14.154ZM232.899 12.39C233.441 12.39 233.842 12.124 234.103 11.592C234.365 11.0507 234.495 10.1967 234.495 9.03C234.495 7.86333 234.365 7.02333 234.103 6.51C233.842 5.99667 233.441 5.74 232.899 5.74C232.358 5.74 231.957 5.99667 231.695 6.51C231.434 7.02333 231.303 7.86333 231.303 9.03C231.303 10.1967 231.434 11.0507 231.695 11.592C231.957 12.124 232.358 12.39 232.899 12.39ZM239.292 14C238.993 14 238.764 13.9207 238.606 13.762C238.447 13.6033 238.368 13.384 238.368 13.104C238.368 12.8147 238.447 12.5953 238.606 12.446C238.764 12.2967 238.993 12.222 239.292 12.222H240.706V5.908H241.728L239.684 7.154C239.469 7.28467 239.268 7.336 239.082 7.308C238.904 7.28 238.75 7.20067 238.62 7.07C238.489 6.93933 238.4 6.78533 238.354 6.608C238.316 6.42133 238.335 6.23933 238.41 6.062C238.484 5.87533 238.624 5.71667 238.83 5.586L240.776 4.41C240.972 4.28867 241.168 4.19067 241.364 4.116C241.569 4.04133 241.77 4.004 241.966 4.004C242.246 4.004 242.465 4.07867 242.624 4.228C242.792 4.368 242.876 4.58733 242.876 4.886V12.222H244.15C244.439 12.222 244.663 12.2967 244.822 12.446C244.98 12.5953 245.06 12.8147 245.06 13.104C245.06 13.3933 244.98 13.6173 244.822 13.776C244.663 13.9253 244.439 14 244.15 14H239.292ZM249.45 14.154C248.956 14.154 248.452 14.098 247.938 13.986C247.434 13.8647 246.996 13.6967 246.622 13.482C246.38 13.3513 246.212 13.1973 246.118 13.02C246.034 12.8333 246.002 12.6513 246.02 12.474C246.048 12.2967 246.123 12.1427 246.244 12.012C246.366 11.872 246.52 11.7833 246.706 11.746C246.902 11.7087 247.117 11.746 247.35 11.858C247.714 12.0353 248.06 12.1613 248.386 12.236C248.713 12.3107 249.04 12.348 249.366 12.348C249.74 12.348 250.052 12.3013 250.304 12.208C250.556 12.1053 250.748 11.9607 250.878 11.774C251.009 11.5873 251.074 11.354 251.074 11.074C251.074 10.682 250.939 10.388 250.668 10.192C250.398 9.996 250.001 9.898 249.478 9.898H248.652C248.344 9.898 248.106 9.82333 247.938 9.674C247.78 9.51533 247.7 9.30067 247.7 9.03C247.7 8.75 247.78 8.53533 247.938 8.386C248.106 8.22733 248.344 8.148 248.652 8.148H249.268C249.586 8.148 249.852 8.10133 250.066 8.008C250.29 7.90533 250.463 7.76533 250.584 7.588C250.715 7.41067 250.78 7.19133 250.78 6.93C250.78 6.55667 250.65 6.272 250.388 6.076C250.136 5.88 249.768 5.782 249.282 5.782C248.984 5.782 248.69 5.81933 248.4 5.894C248.111 5.95933 247.798 6.08067 247.462 6.258C247.257 6.36067 247.066 6.39333 246.888 6.356C246.711 6.31867 246.562 6.23467 246.44 6.104C246.328 5.97333 246.254 5.824 246.216 5.656C246.188 5.47867 246.212 5.30133 246.286 5.124C246.37 4.94667 246.52 4.802 246.734 4.69C247.136 4.45667 247.57 4.27933 248.036 4.158C248.512 4.03667 248.993 3.976 249.478 3.976C250.188 3.976 250.794 4.08333 251.298 4.298C251.802 4.51267 252.19 4.82067 252.46 5.222C252.731 5.614 252.866 6.09 252.866 6.65C252.866 7.03267 252.792 7.38267 252.642 7.7C252.493 8.01733 252.283 8.288 252.012 8.512C251.751 8.72667 251.429 8.88067 251.046 8.974V8.792C251.709 8.904 252.227 9.17933 252.6 9.618C252.974 10.0567 253.16 10.6073 253.16 11.27C253.16 11.858 253.011 12.3713 252.712 12.81C252.414 13.2393 251.984 13.5707 251.424 13.804C250.874 14.0373 250.216 14.154 249.45 14.154ZM258.083 14.154C257.299 14.154 256.627 14.042 256.067 13.818C255.507 13.594 255.077 13.272 254.779 12.852C254.48 12.4227 254.331 11.9093 254.331 11.312C254.331 10.8453 254.424 10.43 254.611 10.066C254.807 9.702 255.073 9.408 255.409 9.184C255.745 8.96 256.123 8.82 256.543 8.764V9.128C255.955 8.99733 255.479 8.71267 255.115 8.274C254.76 7.826 254.583 7.28933 254.583 6.664C254.583 6.104 254.723 5.62333 255.003 5.222C255.292 4.82067 255.698 4.51267 256.221 4.298C256.753 4.08333 257.373 3.976 258.083 3.976C258.801 3.976 259.422 4.08333 259.945 4.298C260.467 4.51267 260.873 4.82067 261.163 5.222C261.452 5.62333 261.597 6.104 261.597 6.664C261.597 7.084 261.513 7.46667 261.345 7.812C261.186 8.15733 260.957 8.442 260.659 8.666C260.369 8.89 260.033 9.03467 259.651 9.1V8.764C260.295 8.85733 260.817 9.13267 261.219 9.59C261.629 10.0473 261.835 10.6213 261.835 11.312C261.835 11.9093 261.685 12.4227 261.387 12.852C261.088 13.272 260.659 13.594 260.099 13.818C259.539 14.042 258.867 14.154 258.083 14.154ZM258.083 12.488C258.661 12.488 259.1 12.376 259.399 12.152C259.697 11.928 259.847 11.5967 259.847 11.158C259.847 10.7193 259.697 10.3927 259.399 10.178C259.1 9.954 258.661 9.842 258.083 9.842C257.504 9.842 257.065 9.954 256.767 10.178C256.468 10.3927 256.319 10.7193 256.319 11.158C256.319 11.5967 256.468 11.928 256.767 12.152C257.065 12.376 257.504 12.488 258.083 12.488ZM258.083 8.176C258.4 8.176 258.671 8.12467 258.895 8.022C259.128 7.91933 259.301 7.77 259.413 7.574C259.534 7.378 259.595 7.154 259.595 6.902C259.595 6.51 259.459 6.202 259.189 5.978C258.927 5.754 258.559 5.642 258.083 5.642C257.607 5.642 257.238 5.754 256.977 5.978C256.715 6.202 256.585 6.51 256.585 6.902C256.585 7.294 256.715 7.60667 256.977 7.84C257.238 8.064 257.607 8.176 258.083 8.176Z" fill="#282832"/>
<path fill-rule="evenodd" clip-rule="evenodd" d="M280.8 6.31818C281.2 5.89394 281.8 5.89394 282.2 6.31818C282.6 6.74242 282.6 7.37879 282.2 7.80303L277.9 12.3636C277.1 13.2121 275.9 13.2121 275.1 12.3636L270.8 7.80303C270.4 7.37879 270.4 6.74242 270.8 6.31818C271.2 5.89394 271.8 5.89394 272.2 6.31818L276.5 10.8788L280.8 6.31818Z" fill="#D1233E"/>
<rect width="375" height="52" transform="translate(0 19)" fill="white"/>
<rect x="8" y="27" width="359" height="36" rx="18" fill="#EBEBF5"/>
<path d="M49.782 49.154C48.718 49.154 47.808 48.944 47.052 48.524C46.296 48.104 45.7127 47.516 45.302 46.76C44.9007 45.9947 44.7 45.094 44.7 44.058C44.7 43.2833 44.812 42.588 45.036 41.972C45.2693 41.3467 45.6053 40.8147 46.044 40.376C46.4827 39.928 47.0147 39.5827 47.64 39.34C48.2747 39.0973 48.9887 38.976 49.782 38.976C50.2487 38.976 50.72 39.0367 51.196 39.158C51.6813 39.27 52.1013 39.4333 52.456 39.648C52.6893 39.7787 52.848 39.942 52.932 40.138C53.016 40.334 53.0393 40.53 53.002 40.726C52.974 40.922 52.8947 41.09 52.764 41.23C52.6427 41.37 52.4887 41.4587 52.302 41.496C52.1153 41.5333 51.9053 41.4913 51.672 41.37C51.392 41.202 51.098 41.0807 50.79 41.006C50.482 40.9313 50.1693 40.894 49.852 40.894C49.2267 40.894 48.6993 41.02 48.27 41.272C47.85 41.5147 47.5327 41.8693 47.318 42.336C47.1033 42.8027 46.996 43.3767 46.996 44.058C46.996 44.73 47.1033 45.304 47.318 45.78C47.5327 46.256 47.85 46.62 48.27 46.872C48.6993 47.1147 49.2267 47.236 49.852 47.236C50.1507 47.236 50.454 47.1987 50.762 47.124C51.0793 47.0493 51.3827 46.9327 51.672 46.774C51.9147 46.6527 52.1293 46.6107 52.316 46.648C52.512 46.676 52.6707 46.76 52.792 46.9C52.9227 47.0307 53.002 47.1893 53.03 47.376C53.0673 47.5627 53.0487 47.7493 52.974 47.936C52.8993 48.1227 52.7593 48.2813 52.554 48.412C52.2087 48.6453 51.784 48.8273 51.28 48.958C50.776 49.0887 50.2767 49.154 49.782 49.154ZM57.4601 49.154C56.6481 49.154 55.9481 49.0093 55.3601 48.72C54.7815 48.4213 54.3335 48.006 54.0161 47.474C53.7081 46.9327 53.5541 46.298 53.5541 45.57C53.5541 44.8607 53.7035 44.24 54.0021 43.708C54.3008 43.1667 54.7161 42.7467 55.2481 42.448C55.7895 42.14 56.4008 41.986 57.0821 41.986C57.5768 41.986 58.0248 42.07 58.4261 42.238C58.8275 42.3967 59.1728 42.63 59.4621 42.938C59.7515 43.2367 59.9708 43.6053 60.1201 44.044C60.2695 44.4733 60.3441 44.954 60.3441 45.486C60.3441 45.6633 60.2881 45.7987 60.1761 45.892C60.0641 45.976 59.9008 46.018 59.6861 46.018H55.2901V44.926H58.8181L58.5941 45.122C58.5941 44.7393 58.5381 44.422 58.4261 44.17C58.3141 43.9087 58.1508 43.7127 57.9361 43.582C57.7308 43.4513 57.4741 43.386 57.1661 43.386C56.8208 43.386 56.5268 43.4653 56.2841 43.624C56.0415 43.7827 55.8548 44.0113 55.7241 44.31C55.5935 44.6087 55.5281 44.968 55.5281 45.388V45.5C55.5281 46.2093 55.6915 46.732 56.0181 47.068C56.3541 47.404 56.8488 47.572 57.5021 47.572C57.7261 47.572 57.9828 47.544 58.2721 47.488C58.5615 47.432 58.8321 47.3433 59.0841 47.222C59.2988 47.1193 59.4901 47.0867 59.6581 47.124C59.8261 47.152 59.9568 47.2267 60.0501 47.348C60.1435 47.4693 60.1948 47.6093 60.2041 47.768C60.2228 47.9267 60.1901 48.0853 60.1061 48.244C60.0221 48.3933 59.8821 48.5193 59.6861 48.622C59.3688 48.7993 59.0095 48.93 58.6081 49.014C58.2161 49.1073 57.8335 49.154 57.4601 49.154ZM62.6657 49.126C62.3111 49.126 62.0404 49.0327 61.8537 48.846C61.6671 48.6593 61.5737 48.3933 61.5737 48.048V43.078C61.5737 42.7327 61.6624 42.4713 61.8397 42.294C62.0264 42.1073 62.2831 42.014 62.6097 42.014C62.9457 42.014 63.2024 42.1073 63.3797 42.294C63.5571 42.4713 63.6457 42.7327 63.6457 43.078V43.806H63.5057C63.6177 43.246 63.8651 42.812 64.2477 42.504C64.6304 42.196 65.1251 42.0233 65.7317 41.986C65.9651 41.9673 66.1424 42.028 66.2637 42.168C66.3944 42.2987 66.4644 42.518 66.4737 42.826C66.4924 43.1153 66.4317 43.344 66.2917 43.512C66.1611 43.68 65.9371 43.7827 65.6197 43.82L65.2977 43.848C64.7657 43.8947 64.3691 44.0487 64.1077 44.31C63.8557 44.5713 63.7297 44.9493 63.7297 45.444V48.048C63.7297 48.3933 63.6364 48.6593 63.4497 48.846C63.2724 49.0327 63.0111 49.126 62.6657 49.126ZM70.5662 49.154C69.8195 49.154 69.1662 49.0093 68.6062 48.72C68.0555 48.4213 67.6309 48.0013 67.3322 47.46C67.0335 46.9187 66.8842 46.2793 66.8842 45.542C66.8842 44.9913 66.9682 44.4967 67.1362 44.058C67.3042 43.6193 67.5469 43.246 67.8642 42.938C68.1909 42.63 68.5829 42.3967 69.0402 42.238C69.4975 42.07 70.0062 41.986 70.5662 41.986C70.8555 41.986 71.1635 42.0233 71.4902 42.098C71.8169 42.1633 72.1389 42.28 72.4562 42.448C72.6429 42.532 72.7689 42.6533 72.8342 42.812C72.9089 42.9613 72.9369 43.12 72.9182 43.288C72.8995 43.4467 72.8389 43.5913 72.7362 43.722C72.6429 43.8433 72.5215 43.9273 72.3722 43.974C72.2229 44.0113 72.0549 43.9833 71.8682 43.89C71.6909 43.7873 71.5042 43.7127 71.3082 43.666C71.1215 43.6193 70.9442 43.596 70.7762 43.596C70.4962 43.596 70.2489 43.6427 70.0342 43.736C69.8195 43.82 69.6375 43.946 69.4882 44.114C69.3482 44.2727 69.2362 44.4733 69.1522 44.716C69.0775 44.9587 69.0402 45.2387 69.0402 45.556C69.0402 46.172 69.1895 46.6573 69.4882 47.012C69.7962 47.3573 70.2255 47.53 70.7762 47.53C70.9442 47.53 71.1215 47.5113 71.3082 47.474C71.4949 47.4273 71.6815 47.3527 71.8682 47.25C72.0549 47.1567 72.2229 47.1333 72.3722 47.18C72.5215 47.2267 72.6382 47.3153 72.7222 47.446C72.8155 47.5673 72.8669 47.712 72.8762 47.88C72.8949 48.0387 72.8669 48.1973 72.7922 48.356C72.7269 48.5053 72.6055 48.622 72.4282 48.706C72.1109 48.8647 71.7935 48.9767 71.4762 49.042C71.1589 49.1167 70.8555 49.154 70.5662 49.154ZM76.2024 49.154C75.6984 49.154 75.2457 49.056 74.8444 48.86C74.4431 48.664 74.1304 48.398 73.9064 48.062C73.6824 47.726 73.5704 47.348 73.5704 46.928C73.5704 46.424 73.7011 46.0273 73.9624 45.738C74.2237 45.4393 74.6484 45.2293 75.2364 45.108C75.8244 44.9773 76.6037 44.912 77.5744 44.912H78.3164V46.004H77.5884C77.1124 46.004 76.7251 46.032 76.4264 46.088C76.1371 46.1347 75.9271 46.2187 75.7964 46.34C75.6751 46.4613 75.6144 46.6293 75.6144 46.844C75.6144 47.1053 75.7031 47.32 75.8804 47.488C76.0671 47.656 76.3331 47.74 76.6784 47.74C76.9491 47.74 77.1871 47.6793 77.3924 47.558C77.6071 47.4273 77.7751 47.2547 77.8964 47.04C78.0177 46.816 78.0784 46.564 78.0784 46.284V44.674C78.0784 44.2633 77.9851 43.974 77.7984 43.806C77.6117 43.6287 77.2944 43.54 76.8464 43.54C76.5944 43.54 76.3191 43.5727 76.0204 43.638C75.7311 43.694 75.4091 43.792 75.0544 43.932C74.8491 44.0253 74.6671 44.0487 74.5084 44.002C74.3497 43.946 74.2284 43.8527 74.1444 43.722C74.0604 43.582 74.0184 43.4327 74.0184 43.274C74.0184 43.106 74.0651 42.9473 74.1584 42.798C74.2517 42.6393 74.4057 42.5227 74.6204 42.448C75.0591 42.2707 75.4697 42.1493 75.8524 42.084C76.2444 42.0187 76.6037 41.986 76.9304 41.986C77.6491 41.986 78.2371 42.0933 78.6944 42.308C79.1611 42.5133 79.5111 42.8353 79.7444 43.274C79.9777 43.7033 80.0944 44.2587 80.0944 44.94V48.048C80.0944 48.3933 80.0104 48.6593 79.8424 48.846C79.6744 49.0327 79.4317 49.126 79.1144 49.126C78.7971 49.126 78.5497 49.0327 78.3724 48.846C78.2044 48.6593 78.1204 48.3933 78.1204 48.048V47.53L78.2184 47.614C78.1624 47.9313 78.0411 48.2067 77.8544 48.44C77.6771 48.664 77.4484 48.8413 77.1684 48.972C76.8884 49.0933 76.5664 49.154 76.2024 49.154ZM86.6455 51.646C86.3002 51.646 86.0342 51.5527 85.8475 51.366C85.6702 51.1887 85.5815 50.9227 85.5815 50.568V43.078C85.5815 42.7327 85.6702 42.4713 85.8475 42.294C86.0342 42.1073 86.2909 42.014 86.6175 42.014C86.9629 42.014 87.2242 42.1073 87.4015 42.294C87.5789 42.4713 87.6675 42.7327 87.6675 43.078V44.03L87.5135 43.484C87.6535 43.036 87.9335 42.6767 88.3535 42.406C88.7829 42.126 89.2729 41.986 89.8235 41.986C90.4209 41.986 90.9435 42.1307 91.3915 42.42C91.8489 42.7093 92.2035 43.12 92.4555 43.652C92.7075 44.184 92.8335 44.8187 92.8335 45.556C92.8335 46.2933 92.7075 46.9327 92.4555 47.474C92.2035 48.0153 91.8535 48.4307 91.4055 48.72C90.9575 49.0093 90.4302 49.154 89.8235 49.154C89.2822 49.154 88.8015 49.0233 88.3815 48.762C87.9615 48.4913 87.6769 48.1413 87.5275 47.712H87.6955V50.568C87.6955 50.9227 87.6022 51.1887 87.4155 51.366C87.2382 51.5527 86.9815 51.646 86.6455 51.646ZM89.1935 47.572C89.4922 47.572 89.7535 47.4973 89.9775 47.348C90.2109 47.1987 90.3882 46.9793 90.5095 46.69C90.6402 46.3913 90.7055 46.0133 90.7055 45.556C90.7055 44.8747 90.5655 44.3753 90.2855 44.058C90.0055 43.7313 89.6415 43.568 89.1935 43.568C88.8949 43.568 88.6289 43.638 88.3955 43.778C88.1715 43.918 87.9942 44.1373 87.8635 44.436C87.7329 44.7253 87.6675 45.0987 87.6675 45.556C87.6675 46.2373 87.8075 46.746 88.0875 47.082C88.3675 47.4087 88.7362 47.572 89.1935 47.572ZM95.2185 49.126C94.8638 49.126 94.5931 49.0327 94.4065 48.846C94.2198 48.6593 94.1265 48.3933 94.1265 48.048V43.078C94.1265 42.7327 94.2151 42.4713 94.3925 42.294C94.5791 42.1073 94.8358 42.014 95.1625 42.014C95.4985 42.014 95.7551 42.1073 95.9325 42.294C96.1098 42.4713 96.1985 42.7327 96.1985 43.078V43.806H96.0585C96.1705 43.246 96.4178 42.812 96.8005 42.504C97.1831 42.196 97.6778 42.0233 98.2845 41.986C98.5178 41.9673 98.6951 42.028 98.8165 42.168C98.9471 42.2987 99.0171 42.518 99.0265 42.826C99.0451 43.1153 98.9845 43.344 98.8445 43.512C98.7138 43.68 98.4898 43.7827 98.1725 43.82L97.8505 43.848C97.3185 43.8947 96.9218 44.0487 96.6605 44.31C96.4085 44.5713 96.2825 44.9493 96.2825 45.444V48.048C96.2825 48.3933 96.1891 48.6593 96.0025 48.846C95.8251 49.0327 95.5638 49.126 95.2185 49.126ZM103.077 49.154C102.34 49.154 101.696 49.0093 101.145 48.72C100.604 48.4307 100.184 48.0153 99.8849 47.474C99.5863 46.9327 99.4369 46.2933 99.4369 45.556C99.4369 45.0053 99.5209 44.5107 99.6889 44.072C99.8569 43.6333 100.1 43.26 100.417 42.952C100.744 42.6347 101.131 42.3967 101.579 42.238C102.027 42.07 102.526 41.986 103.077 41.986C103.814 41.986 104.454 42.1307 104.995 42.42C105.546 42.7093 105.97 43.12 106.269 43.652C106.577 44.184 106.731 44.8187 106.731 45.556C106.731 46.116 106.642 46.6153 106.465 47.054C106.297 47.4927 106.054 47.8707 105.737 48.188C105.42 48.5053 105.032 48.748 104.575 48.916C104.127 49.0747 103.628 49.154 103.077 49.154ZM103.077 47.572C103.385 47.572 103.651 47.4973 103.875 47.348C104.099 47.1987 104.276 46.9793 104.407 46.69C104.538 46.3913 104.603 46.0133 104.603 45.556C104.603 44.8747 104.463 44.3753 104.183 44.058C103.903 43.7313 103.534 43.568 103.077 43.568C102.778 43.568 102.512 43.638 102.279 43.778C102.055 43.918 101.878 44.1373 101.747 44.436C101.626 44.7253 101.565 45.0987 101.565 45.556C101.565 46.2373 101.705 46.746 101.985 47.082C102.265 47.4087 102.629 47.572 103.077 47.572ZM110.691 49.154C110.094 49.154 109.566 49.0093 109.109 48.72C108.661 48.4307 108.311 48.0153 108.059 47.474C107.807 46.9327 107.681 46.2933 107.681 45.556C107.681 44.8187 107.807 44.184 108.059 43.652C108.311 43.12 108.661 42.7093 109.109 42.42C109.566 42.1307 110.094 41.986 110.691 41.986C111.232 41.986 111.708 42.1167 112.119 42.378C112.539 42.6393 112.824 42.98 112.973 43.4H112.819V40.082C112.819 39.7273 112.908 39.4613 113.085 39.284C113.262 39.0973 113.524 39.004 113.869 39.004C114.205 39.004 114.466 39.0973 114.653 39.284C114.84 39.4613 114.933 39.7273 114.933 40.082V48.048C114.933 48.3933 114.84 48.6593 114.653 48.846C114.476 49.0327 114.219 49.126 113.883 49.126C113.547 49.126 113.286 49.0327 113.099 48.846C112.922 48.6593 112.833 48.3933 112.833 48.048V47.096L112.987 47.642C112.856 48.0993 112.576 48.468 112.147 48.748C111.727 49.0187 111.242 49.154 110.691 49.154ZM111.321 47.572C111.629 47.572 111.895 47.4973 112.119 47.348C112.343 47.1987 112.52 46.9793 112.651 46.69C112.782 46.3913 112.847 46.0133 112.847 45.556C112.847 44.8747 112.707 44.3753 112.427 44.058C112.147 43.7313 111.778 43.568 111.321 43.568C111.022 43.568 110.756 43.638 110.523 43.778C110.299 43.918 110.122 44.1373 109.991 44.436C109.87 44.7253 109.809 45.0987 109.809 45.556C109.809 46.2373 109.949 46.746 110.229 47.082C110.509 47.4087 110.873 47.572 111.321 47.572ZM119.866 49.154C119.129 49.154 118.485 49.0093 117.934 48.72C117.393 48.4307 116.973 48.0153 116.674 47.474C116.375 46.9327 116.226 46.2933 116.226 45.556C116.226 45.0053 116.31 44.5107 116.478 44.072C116.646 43.6333 116.889 43.26 117.206 42.952C117.533 42.6347 117.92 42.3967 118.368 42.238C118.816 42.07 119.315 41.986 119.866 41.986C120.603 41.986 121.243 42.1307 121.784 42.42C122.335 42.7093 122.759 43.12 123.058 43.652C123.366 44.184 123.52 44.8187 123.52 45.556C123.52 46.116 123.431 46.6153 123.254 47.054C123.086 47.4927 122.843 47.8707 122.526 48.188C122.209 48.5053 121.821 48.748 121.364 48.916C120.916 49.0747 120.417 49.154 119.866 49.154ZM119.866 47.572C120.174 47.572 120.44 47.4973 120.664 47.348C120.888 47.1987 121.065 46.9793 121.196 46.69C121.327 46.3913 121.392 46.0133 121.392 45.556C121.392 44.8747 121.252 44.3753 120.972 44.058C120.692 43.7313 120.323 43.568 119.866 43.568C119.567 43.568 119.301 43.638 119.068 43.778C118.844 43.918 118.667 44.1373 118.536 44.436C118.415 44.7253 118.354 45.0987 118.354 45.556C118.354 46.2373 118.494 46.746 118.774 47.082C119.054 47.4087 119.418 47.572 119.866 47.572ZM128.112 49.154C127.468 49.154 126.926 49.0467 126.488 48.832C126.058 48.6173 125.736 48.3047 125.522 47.894C125.316 47.4833 125.214 46.9653 125.214 46.34V43.708H124.626C124.364 43.708 124.159 43.638 124.01 43.498C123.87 43.358 123.8 43.1667 123.8 42.924C123.8 42.6627 123.87 42.4667 124.01 42.336C124.159 42.196 124.364 42.126 124.626 42.126H125.214V41.062C125.214 40.7073 125.307 40.4413 125.494 40.264C125.68 40.0773 125.942 39.984 126.278 39.984C126.623 39.984 126.884 40.0773 127.062 40.264C127.239 40.4413 127.328 40.7073 127.328 41.062V42.126H128.658C128.919 42.126 129.12 42.196 129.26 42.336C129.4 42.4667 129.47 42.6627 129.47 42.924C129.47 43.1667 129.4 43.358 129.26 43.498C129.12 43.638 128.919 43.708 128.658 43.708H127.328V46.256C127.328 46.648 127.416 46.942 127.594 47.138C127.78 47.334 128.074 47.432 128.476 47.432C128.616 47.432 128.746 47.418 128.868 47.39C128.989 47.362 129.101 47.3433 129.204 47.334C129.334 47.3247 129.442 47.3667 129.526 47.46C129.61 47.544 129.652 47.7353 129.652 48.034C129.652 48.258 129.614 48.454 129.54 48.622C129.465 48.79 129.334 48.9113 129.148 48.986C129.026 49.0327 128.858 49.07 128.644 49.098C128.438 49.1353 128.261 49.154 128.112 49.154ZM133.266 49.154C132.622 49.154 132.081 49.0467 131.642 48.832C131.213 48.6173 130.891 48.3047 130.676 47.894C130.471 47.4833 130.368 46.9653 130.368 46.34V43.708H129.78C129.519 43.708 129.313 43.638 129.164 43.498C129.024 43.358 128.954 43.1667 128.954 42.924C128.954 42.6627 129.024 42.4667 129.164 42.336C129.313 42.196 129.519 42.126 129.78 42.126H130.368V41.062C130.368 40.7073 130.461 40.4413 130.648 40.264C130.835 40.0773 131.096 39.984 131.432 39.984C131.777 39.984 132.039 40.0773 132.216 40.264C132.393 40.4413 132.482 40.7073 132.482 41.062V42.126H133.812C134.073 42.126 134.274 42.196 134.414 42.336C134.554 42.4667 134.624 42.6627 134.624 42.924C134.624 43.1667 134.554 43.358 134.414 43.498C134.274 43.638 134.073 43.708 133.812 43.708H132.482V46.256C132.482 46.648 132.571 46.942 132.748 47.138C132.935 47.334 133.229 47.432 133.63 47.432C133.77 47.432 133.901 47.418 134.022 47.39C134.143 47.362 134.255 47.3433 134.358 47.334C134.489 47.3247 134.596 47.3667 134.68 47.46C134.764 47.544 134.806 47.7353 134.806 48.034C134.806 48.258 134.769 48.454 134.694 48.622C134.619 48.79 134.489 48.9113 134.302 48.986C134.181 49.0327 134.013 49.07 133.798 49.098C133.593 49.1353 133.415 49.154 133.266 49.154ZM136.821 49.112C136.476 49.112 136.21 49.014 136.023 48.818C135.846 48.6127 135.757 48.328 135.757 47.964V43.176C135.757 42.8027 135.846 42.518 136.023 42.322C136.21 42.1167 136.476 42.014 136.821 42.014C137.157 42.014 137.414 42.1167 137.591 42.322C137.778 42.518 137.871 42.8027 137.871 43.176V47.964C137.871 48.328 137.783 48.6127 137.605 48.818C137.428 49.014 137.167 49.112 136.821 49.112ZM136.821 40.866C136.429 40.866 136.126 40.7773 135.911 40.6C135.706 40.4133 135.603 40.152 135.603 39.816C135.603 39.4707 135.706 39.2093 135.911 39.032C136.126 38.8453 136.429 38.752 136.821 38.752C137.213 38.752 137.512 38.8453 137.717 39.032C137.923 39.2093 138.025 39.4707 138.025 39.816C138.025 40.152 137.923 40.4133 137.717 40.6C137.512 40.7773 137.213 40.866 136.821 40.866ZM146.718 49.154C145.98 49.154 145.336 49.0093 144.786 48.72C144.244 48.4307 143.824 48.0153 143.526 47.474C143.227 46.9327 143.078 46.2933 143.078 45.556C143.078 45.0053 143.162 44.5107 143.33 44.072C143.498 43.6333 143.74 43.26 144.058 42.952C144.384 42.6347 144.772 42.3967 145.22 42.238C145.668 42.07 146.167 41.986 146.718 41.986C147.455 41.986 148.094 42.1307 148.636 42.42C149.186 42.7093 149.611 43.12 149.91 43.652C150.218 44.184 150.372 44.8187 150.372 45.556C150.372 46.116 150.283 46.6153 150.106 47.054C149.938 47.4927 149.695 47.8707 149.378 48.188C149.06 48.5053 148.673 48.748 148.216 48.916C147.768 49.0747 147.268 49.154 146.718 49.154ZM146.718 47.572C147.026 47.572 147.292 47.4973 147.516 47.348C147.74 47.1987 147.917 46.9793 148.048 46.69C148.178 46.3913 148.244 46.0133 148.244 45.556C148.244 44.8747 148.104 44.3753 147.824 44.058C147.544 43.7313 147.175 43.568 146.718 43.568C146.419 43.568 146.153 43.638 145.92 43.778C145.696 43.918 145.518 44.1373 145.388 44.436C145.266 44.7253 145.206 45.0987 145.206 45.556C145.206 46.2373 145.346 46.746 145.626 47.082C145.906 47.4087 146.27 47.572 146.718 47.572ZM156.632 49.126C156.287 49.126 156.021 49.0327 155.834 48.846C155.657 48.6593 155.568 48.3933 155.568 48.048V43.078C155.568 42.7327 155.657 42.4713 155.834 42.294C156.021 42.1073 156.277 42.014 156.604 42.014C156.94 42.014 157.197 42.1073 157.374 42.294C157.551 42.4713 157.64 42.7327 157.64 43.078V43.876L157.486 43.414C157.701 42.9567 158.018 42.6067 158.438 42.364C158.867 42.112 159.353 41.986 159.894 41.986C160.445 41.986 160.897 42.0933 161.252 42.308C161.607 42.5133 161.873 42.8307 162.05 43.26C162.227 43.68 162.316 44.2167 162.316 44.87V48.048C162.316 48.3933 162.223 48.6593 162.036 48.846C161.859 49.0327 161.597 49.126 161.252 49.126C160.916 49.126 160.655 49.0327 160.468 48.846C160.291 48.6593 160.202 48.3933 160.202 48.048V44.968C160.202 44.492 160.113 44.1513 159.936 43.946C159.768 43.7313 159.507 43.624 159.152 43.624C158.704 43.624 158.345 43.764 158.074 44.044C157.813 44.324 157.682 44.6973 157.682 45.164V48.048C157.682 48.7667 157.332 49.126 156.632 49.126ZM167.464 49.154C166.652 49.154 165.952 49.0093 165.364 48.72C164.785 48.4213 164.337 48.006 164.02 47.474C163.712 46.9327 163.558 46.298 163.558 45.57C163.558 44.8607 163.707 44.24 164.006 43.708C164.305 43.1667 164.72 42.7467 165.252 42.448C165.793 42.14 166.405 41.986 167.086 41.986C167.581 41.986 168.029 42.07 168.43 42.238C168.831 42.3967 169.177 42.63 169.466 42.938C169.755 43.2367 169.975 43.6053 170.124 44.044C170.273 44.4733 170.348 44.954 170.348 45.486C170.348 45.6633 170.292 45.7987 170.18 45.892C170.068 45.976 169.905 46.018 169.69 46.018H165.294V44.926H168.822L168.598 45.122C168.598 44.7393 168.542 44.422 168.43 44.17C168.318 43.9087 168.155 43.7127 167.94 43.582C167.735 43.4513 167.478 43.386 167.17 43.386C166.825 43.386 166.531 43.4653 166.288 43.624C166.045 43.7827 165.859 44.0113 165.728 44.31C165.597 44.6087 165.532 44.968 165.532 45.388V45.5C165.532 46.2093 165.695 46.732 166.022 47.068C166.358 47.404 166.853 47.572 167.506 47.572C167.73 47.572 167.987 47.544 168.276 47.488C168.565 47.432 168.836 47.3433 169.088 47.222C169.303 47.1193 169.494 47.0867 169.662 47.124C169.83 47.152 169.961 47.2267 170.054 47.348C170.147 47.4693 170.199 47.6093 170.208 47.768C170.227 47.9267 170.194 48.0853 170.11 48.244C170.026 48.3933 169.886 48.5193 169.69 48.622C169.373 48.7993 169.013 48.93 168.612 49.014C168.22 49.1073 167.837 49.154 167.464 49.154ZM174.882 51.674C174.378 51.674 173.892 51.632 173.426 51.548C172.968 51.464 172.562 51.338 172.208 51.17C171.993 51.0767 171.839 50.9553 171.746 50.806C171.662 50.6567 171.624 50.498 171.634 50.33C171.652 50.162 171.708 50.0127 171.802 49.882C171.904 49.7513 172.03 49.658 172.18 49.602C172.329 49.5553 172.488 49.5693 172.656 49.644C173.066 49.8307 173.444 49.952 173.79 50.008C174.144 50.064 174.448 50.092 174.7 50.092C175.297 50.092 175.745 49.9567 176.044 49.686C176.342 49.4153 176.492 49 176.492 48.44V47.376H176.618C176.478 47.8053 176.188 48.1553 175.75 48.426C175.311 48.6967 174.826 48.832 174.294 48.832C173.678 48.832 173.141 48.692 172.684 48.412C172.226 48.1227 171.872 47.7213 171.62 47.208C171.368 46.6853 171.242 46.0833 171.242 45.402C171.242 44.8887 171.312 44.422 171.452 44.002C171.601 43.582 171.806 43.2227 172.068 42.924C172.338 42.6253 172.66 42.3967 173.034 42.238C173.416 42.07 173.836 41.986 174.294 41.986C174.844 41.986 175.33 42.1213 175.75 42.392C176.179 42.6533 176.464 42.9987 176.604 43.428L176.464 43.876V43.078C176.464 42.7327 176.552 42.4713 176.73 42.294C176.916 42.1073 177.178 42.014 177.514 42.014C177.85 42.014 178.106 42.1073 178.284 42.294C178.461 42.4713 178.55 42.7327 178.55 43.078V48.202C178.55 49.35 178.232 50.2133 177.598 50.792C176.972 51.38 176.067 51.674 174.882 51.674ZM174.924 47.25C175.241 47.25 175.512 47.1753 175.736 47.026C175.969 46.8767 176.151 46.6667 176.282 46.396C176.412 46.116 176.478 45.7847 176.478 45.402C176.478 44.8233 176.333 44.3753 176.044 44.058C175.764 43.7313 175.39 43.568 174.924 43.568C174.606 43.568 174.331 43.6427 174.098 43.792C173.864 43.932 173.682 44.142 173.552 44.422C173.43 44.6927 173.37 45.0193 173.37 45.402C173.37 45.9807 173.51 46.4333 173.79 46.76C174.07 47.0867 174.448 47.25 174.924 47.25ZM183.495 49.154C182.758 49.154 182.114 49.0093 181.563 48.72C181.022 48.4307 180.602 48.0153 180.303 47.474C180.004 46.9327 179.855 46.2933 179.855 45.556C179.855 45.0053 179.939 44.5107 180.107 44.072C180.275 43.6333 180.518 43.26 180.835 42.952C181.162 42.6347 181.549 42.3967 181.997 42.238C182.445 42.07 182.944 41.986 183.495 41.986C184.232 41.986 184.872 42.1307 185.413 42.42C185.964 42.7093 186.388 43.12 186.687 43.652C186.995 44.184 187.149 44.8187 187.149 45.556C187.149 46.116 187.06 46.6153 186.883 47.054C186.715 47.4927 186.472 47.8707 186.155 48.188C185.838 48.5053 185.45 48.748 184.993 48.916C184.545 49.0747 184.046 49.154 183.495 49.154ZM183.495 47.572C183.803 47.572 184.069 47.4973 184.293 47.348C184.517 47.1987 184.694 46.9793 184.825 46.69C184.956 46.3913 185.021 46.0133 185.021 45.556C185.021 44.8747 184.881 44.3753 184.601 44.058C184.321 43.7313 183.952 43.568 183.495 43.568C183.196 43.568 182.93 43.638 182.697 43.778C182.473 43.918 182.296 44.1373 182.165 44.436C182.044 44.7253 181.983 45.0987 181.983 45.556C181.983 46.2373 182.123 46.746 182.403 47.082C182.683 47.4087 183.047 47.572 183.495 47.572ZM188.9 49C188.695 49 188.522 48.9487 188.382 48.846C188.242 48.734 188.149 48.594 188.102 48.426C188.055 48.258 188.055 48.076 188.102 47.88C188.158 47.684 188.265 47.502 188.424 47.334L191.854 43.218V43.708H188.816C188.564 43.708 188.368 43.638 188.228 43.498C188.088 43.358 188.018 43.1667 188.018 42.924C188.018 42.6627 188.088 42.4667 188.228 42.336C188.368 42.196 188.564 42.126 188.816 42.126H192.862C193.114 42.126 193.315 42.182 193.464 42.294C193.613 42.406 193.711 42.546 193.758 42.714C193.814 42.8727 193.819 43.05 193.772 43.246C193.735 43.4327 193.637 43.61 193.478 43.778L189.964 47.978V47.432H193.212C193.744 47.432 194.01 47.6933 194.01 48.216C194.01 48.468 193.94 48.664 193.8 48.804C193.66 48.9347 193.464 49 193.212 49H188.9ZM196.103 49.112C195.757 49.112 195.491 49.014 195.305 48.818C195.127 48.6127 195.039 48.328 195.039 47.964V43.176C195.039 42.8027 195.127 42.518 195.305 42.322C195.491 42.1167 195.757 42.014 196.103 42.014C196.439 42.014 196.695 42.1167 196.873 42.322C197.059 42.518 197.153 42.8027 197.153 43.176V47.964C197.153 48.328 197.064 48.6127 196.887 48.818C196.709 49.014 196.448 49.112 196.103 49.112ZM196.103 40.866C195.711 40.866 195.407 40.7773 195.193 40.6C194.987 40.4133 194.885 40.152 194.885 39.816C194.885 39.4707 194.987 39.2093 195.193 39.032C195.407 38.8453 195.711 38.752 196.103 38.752C196.495 38.752 196.793 38.8453 196.999 39.032C197.204 39.2093 197.307 39.4707 197.307 39.816C197.307 40.152 197.204 40.4133 196.999 40.6C196.793 40.7773 196.495 40.866 196.103 40.866Z" fill="#777794"/>
<path fill-rule="evenodd" clip-rule="evenodd" d="M29.0317 46.6175L32.2071 49.7929C32.5976 50.1834 32.5976 50.8166 32.2071 51.2071C31.8166 51.5976 31.1834 51.5976 30.7929 51.2071L27.6175 48.0317C26.7315 48.6424 25.6575 49 24.5 49C21.4624 49 19 46.5376 19 43.5C19 40.4624 21.4624 38 24.5 38C27.5376 38 30 40.4624 30 43.5C30 44.6575 29.6424 45.7315 29.0317 46.6175ZM24.5 47C26.433 47 28 45.433 28 43.5C28 41.567 26.433 40 24.5 40C22.567 40 21 41.567 21 43.5C21 45.433 22.567 47 24.5 47Z" fill="#777794"/>
<g clip-path="url(#clip0_111_4404)" filter="url(#filter0_d_111_4404)">
<rect width="375" height="38" transform="translate(0 71)" fill="white"/>
<rect x="8" y="79" width="81" height="22" rx="11" fill="#D1233E"/>
<path d="M17.7439 93.09C17.4906 93.09 17.2972 93.02 17.1639 92.88C17.0306 92.74 16.9639 92.5433 16.9639 92.29V86.66C16.9639 86.4067 17.0306 86.21 17.1639 86.07C17.2972 85.93 17.4906 85.86 17.7439 85.86C17.9906 85.86 18.1806 85.93 18.3139 86.07C18.4472 86.21 18.5139 86.4067 18.5139 86.66V92.29C18.5139 92.5433 18.4472 92.74 18.3139 92.88C18.1872 93.02 17.9972 93.09 17.7439 93.09ZM20.6527 93.09C20.4193 93.09 20.2393 93.0267 20.1127 92.9C19.9927 92.7667 19.9327 92.58 19.9327 92.34V86.64C19.9327 86.3867 19.9927 86.1933 20.1127 86.06C20.2393 85.9267 20.406 85.86 20.6127 85.86C20.7927 85.86 20.9293 85.8967 21.0227 85.97C21.1227 86.0367 21.236 86.15 21.3627 86.31L24.8727 90.78H24.6027V86.6C24.6027 86.3667 24.6627 86.1867 24.7827 86.06C24.9093 85.9267 25.0893 85.86 25.3227 85.86C25.556 85.86 25.7327 85.9267 25.8527 86.06C25.9793 86.1867 26.0427 86.3667 26.0427 86.6V92.37C26.0427 92.59 25.986 92.7667 25.8727 92.9C25.7593 93.0267 25.606 93.09 25.4127 93.09C25.226 93.09 25.076 93.0533 24.9627 92.98C24.856 92.9067 24.7393 92.79 24.6127 92.63L21.1127 88.16H21.3727V92.34C21.3727 92.58 21.3127 92.7667 21.1927 92.9C21.0727 93.0267 20.8927 93.09 20.6527 93.09ZM31.0649 93C30.8049 93 30.6049 92.93 30.4649 92.79C30.3249 92.65 30.2549 92.45 30.2549 92.19V86.76C30.2549 86.5 30.3249 86.3 30.4649 86.16C30.6049 86.02 30.8049 85.95 31.0649 85.95H34.5549C34.7549 85.95 34.9049 86.0033 35.0049 86.11C35.1116 86.21 35.1649 86.3567 35.1649 86.55C35.1649 86.75 35.1116 86.9033 35.0049 87.01C34.9049 87.11 34.7549 87.16 34.5549 87.16H31.7349V88.81H34.3249C34.5316 88.81 34.6849 88.8633 34.7849 88.97C34.8916 89.07 34.9449 89.22 34.9449 89.42C34.9449 89.62 34.8916 89.7733 34.7849 89.88C34.6849 89.98 34.5316 90.03 34.3249 90.03H31.7349V91.79H34.5549C34.7549 91.79 34.9049 91.8433 35.0049 91.95C35.1116 92.05 35.1649 92.1967 35.1649 92.39C35.1649 92.59 35.1116 92.7433 35.0049 92.85C34.9049 92.95 34.7549 93 34.5549 93H31.0649ZM39.2396 93.09C39.0263 93.09 38.8496 93.0433 38.7096 92.95C38.5763 92.85 38.4663 92.7 38.3796 92.5L35.8596 86.9C35.7663 86.7 35.7396 86.5233 35.7796 86.37C35.8196 86.21 35.9029 86.0867 36.0296 86C36.1563 85.9067 36.3096 85.86 36.4896 85.86C36.7163 85.86 36.8896 85.9133 37.0096 86.02C37.1296 86.12 37.2296 86.27 37.3096 86.47L39.5196 91.58H39.0196L41.2296 86.46C41.3163 86.26 41.4196 86.11 41.5396 86.01C41.6596 85.91 41.8263 85.86 42.0396 85.86C42.2196 85.86 42.3663 85.9067 42.4796 86C42.5996 86.0867 42.6729 86.21 42.6996 86.37C42.7329 86.5233 42.7063 86.7 42.6196 86.9L40.0996 92.5C40.0063 92.7 39.8929 92.85 39.7596 92.95C39.6329 93.0433 39.4596 93.09 39.2396 93.09ZM44.3552 93.09C44.1019 93.09 43.9086 93.02 43.7752 92.88C43.6419 92.74 43.5752 92.5433 43.5752 92.29V86.66C43.5752 86.4067 43.6419 86.21 43.7752 86.07C43.9086 85.93 44.1019 85.86 44.3552 85.86C44.6019 85.86 44.7919 85.93 44.9252 86.07C45.0586 86.21 45.1252 86.4067 45.1252 86.66V92.29C45.1252 92.5433 45.0586 92.74 44.9252 92.88C44.7986 93.02 44.6086 93.09 44.3552 93.09ZM47.354 93C47.094 93 46.894 92.93 46.754 92.79C46.614 92.65 46.544 92.45 46.544 92.19V86.76C46.544 86.5 46.614 86.3 46.754 86.16C46.894 86.02 47.094 85.95 47.354 85.95H49.304C50.5107 85.95 51.4407 86.2567 52.094 86.87C52.754 87.4767 53.084 88.3433 53.084 89.47C53.084 90.0367 52.9973 90.54 52.824 90.98C52.6573 91.4133 52.414 91.78 52.094 92.08C51.774 92.38 51.3807 92.61 50.914 92.77C50.4473 92.9233 49.9107 93 49.304 93H47.354ZM48.094 91.73H49.214C49.594 91.73 49.924 91.6833 50.204 91.59C50.484 91.4967 50.7173 91.3567 50.904 91.17C51.0907 90.9833 51.2307 90.75 51.324 90.47C51.4173 90.1833 51.464 89.85 51.464 89.47C51.464 88.71 51.274 88.1467 50.894 87.78C50.5207 87.4067 49.9607 87.22 49.214 87.22H48.094V91.73ZM55.0981 93C54.8381 93 54.6381 92.93 54.4981 92.79C54.3581 92.65 54.2881 92.45 54.2881 92.19V86.76C54.2881 86.5 54.3581 86.3 54.4981 86.16C54.6381 86.02 54.8381 85.95 55.0981 85.95H58.5881C58.7881 85.95 58.9381 86.0033 59.0381 86.11C59.1448 86.21 59.1981 86.3567 59.1981 86.55C59.1981 86.75 59.1448 86.9033 59.0381 87.01C58.9381 87.11 58.7881 87.16 58.5881 87.16H55.7681V88.81H58.3581C58.5648 88.81 58.7181 88.8633 58.8181 88.97C58.9248 89.07 58.9781 89.22 58.9781 89.42C58.9781 89.62 58.9248 89.7733 58.8181 89.88C58.7181 89.98 58.5648 90.03 58.3581 90.03H55.7681V91.79H58.5881C58.7881 91.79 58.9381 91.8433 59.0381 91.95C59.1448 92.05 59.1981 92.1967 59.1981 92.39C59.1981 92.59 59.1448 92.7433 59.0381 92.85C58.9381 92.95 58.7881 93 58.5881 93H55.0981ZM61.0628 93.09C60.8295 93.09 60.6495 93.0267 60.5228 92.9C60.4028 92.7667 60.3428 92.58 60.3428 92.34V86.64C60.3428 86.3867 60.4028 86.1933 60.5228 86.06C60.6495 85.9267 60.8161 85.86 61.0228 85.86C61.2028 85.86 61.3395 85.8967 61.4328 85.97C61.5328 86.0367 61.6461 86.15 61.7728 86.31L65.2828 90.78H65.0128V86.6C65.0128 86.3667 65.0728 86.1867 65.1928 86.06C65.3195 85.9267 65.4995 85.86 65.7328 85.86C65.9661 85.86 66.1428 85.9267 66.2628 86.06C66.3895 86.1867 66.4528 86.3667 66.4528 86.6V92.37C66.4528 92.59 66.3961 92.7667 66.2828 92.9C66.1695 93.0267 66.0161 93.09 65.8228 93.09C65.6361 93.09 65.4861 93.0533 65.3728 92.98C65.2661 92.9067 65.1495 92.79 65.0228 92.63L61.5228 88.16H61.7828V92.34C61.7828 92.58 61.7228 92.7667 61.6028 92.9C61.4828 93.0267 61.3028 93.09 61.0628 93.09ZM68.3321 93C68.1321 93 67.9688 92.96 67.8421 92.88C67.7154 92.7933 67.6288 92.68 67.5821 92.54C67.5421 92.3933 67.5421 92.2333 67.5821 92.06C67.6288 91.8867 67.7221 91.7133 67.8621 91.54L71.5021 86.77V87.24H68.2121C67.9921 87.24 67.8221 87.1833 67.7021 87.07C67.5888 86.9567 67.5321 86.7967 67.5321 86.59C67.5321 86.3833 67.5888 86.2267 67.7021 86.12C67.8221 86.0067 67.9921 85.95 68.2121 85.95H72.2321C72.4388 85.95 72.6021 85.9933 72.7221 86.08C72.8488 86.16 72.9354 86.27 72.9821 86.41C73.0288 86.55 73.0288 86.71 72.9821 86.89C72.9354 87.0633 72.8421 87.2367 72.7021 87.41L69.0621 92.17V91.71H72.5121C72.7321 91.71 72.8988 91.7667 73.0121 91.88C73.1321 91.9867 73.1921 92.1433 73.1921 92.35C73.1921 92.5633 73.1321 92.7267 73.0121 92.84C72.8988 92.9467 72.7321 93 72.5121 93H68.3321ZM74.1268 93.09C73.9401 93.09 73.7868 93.0467 73.6668 92.96C73.5535 92.8733 73.4801 92.7567 73.4468 92.61C73.4201 92.4633 73.4501 92.3 73.5368 92.12L76.0968 86.51C76.2035 86.2833 76.3301 86.12 76.4768 86.02C76.6235 85.9133 76.7935 85.86 76.9868 85.86C77.1801 85.86 77.3501 85.9133 77.4968 86.02C77.6435 86.12 77.7668 86.2833 77.8668 86.51L80.4468 92.12C80.5335 92.3 80.5635 92.4667 80.5368 92.62C80.5168 92.7667 80.4501 92.8833 80.3368 92.97C80.2235 93.05 80.0768 93.09 79.8968 93.09C79.6701 93.09 79.4935 93.0367 79.3668 92.93C79.2468 92.8233 79.1401 92.6567 79.0468 92.43L78.4468 91.04L79.0668 91.47H74.8968L75.5168 91.04L74.9268 92.43C74.8268 92.6633 74.7201 92.8333 74.6068 92.94C74.5001 93.04 74.3401 93.09 74.1268 93.09ZM76.9668 87.6L75.6868 90.65L75.4168 90.26H78.5468L78.2768 90.65L76.9868 87.6H76.9668Z" fill="white"/>
<path d="M98.6082 93.09C98.3548 93.09 98.1615 93.02 98.0282 92.88C97.8948 92.74 97.8282 92.5433 97.8282 92.29V86.66C97.8282 86.4067 97.8948 86.21 98.0282 86.07C98.1615 85.93 98.3548 85.86 98.6082 85.86C98.8548 85.86 99.0448 85.93 99.1782 86.07C99.3115 86.21 99.3782 86.4067 99.3782 86.66V92.29C99.3782 92.5433 99.3115 92.74 99.1782 92.88C99.0515 93.02 98.8615 93.09 98.6082 93.09ZM101.577 93.09C101.324 93.09 101.13 93.02 100.997 92.88C100.864 92.74 100.797 92.5433 100.797 92.29V86.74C100.797 86.48 100.864 86.2833 100.997 86.15C101.137 86.0167 101.334 85.95 101.587 85.95H104.017C104.804 85.95 105.41 86.15 105.837 86.55C106.264 86.9433 106.477 87.4933 106.477 88.2C106.477 88.9067 106.264 89.46 105.837 89.86C105.41 90.26 104.804 90.46 104.017 90.46H102.347V92.29C102.347 92.5433 102.28 92.74 102.147 92.88C102.02 93.02 101.83 93.09 101.577 93.09ZM102.347 89.26H103.757C104.157 89.26 104.46 89.17 104.667 88.99C104.88 88.81 104.987 88.5467 104.987 88.2C104.987 87.8533 104.88 87.5933 104.667 87.42C104.46 87.2467 104.157 87.16 103.757 87.16H102.347V89.26ZM108.248 93C107.988 93 107.788 92.93 107.648 92.79C107.508 92.65 107.438 92.45 107.438 92.19V86.76C107.438 86.5 107.508 86.3 107.648 86.16C107.788 86.02 107.988 85.95 108.248 85.95H111.738C111.938 85.95 112.088 86.0033 112.188 86.11C112.294 86.21 112.348 86.3567 112.348 86.55C112.348 86.75 112.294 86.9033 112.188 87.01C112.088 87.11 111.938 87.16 111.738 87.16H108.918V88.81H111.508C111.714 88.81 111.868 88.8633 111.968 88.97C112.074 89.07 112.128 89.22 112.128 89.42C112.128 89.62 112.074 89.7733 111.968 89.88C111.868 89.98 111.714 90.03 111.508 90.03H108.918V91.79H111.738C111.938 91.79 112.088 91.8433 112.188 91.95C112.294 92.05 112.348 92.1967 112.348 92.39C112.348 92.59 112.294 92.7433 112.188 92.85C112.088 92.95 111.938 93 111.738 93H108.248ZM114.272 93.09C114.019 93.09 113.826 93.02 113.692 92.88C113.559 92.74 113.492 92.5433 113.492 92.29V86.74C113.492 86.48 113.559 86.2833 113.692 86.15C113.832 86.0167 114.029 85.95 114.282 85.95H116.712C117.499 85.95 118.106 86.14 118.532 86.52C118.959 86.9 119.172 87.43 119.172 88.11C119.172 88.55 119.076 88.93 118.882 89.25C118.689 89.57 118.409 89.8167 118.042 89.99C117.682 90.1633 117.239 90.25 116.712 90.25L116.792 90.08H117.202C117.482 90.08 117.726 90.15 117.932 90.29C118.146 90.4233 118.329 90.63 118.482 90.91L119.102 92.06C119.196 92.2267 119.239 92.39 119.232 92.55C119.226 92.71 119.166 92.84 119.052 92.94C118.939 93.04 118.772 93.09 118.552 93.09C118.332 93.09 118.152 93.0433 118.012 92.95C117.879 92.8567 117.759 92.7133 117.652 92.52L116.692 90.75C116.592 90.5633 116.469 90.4367 116.322 90.37C116.182 90.3033 116.009 90.27 115.802 90.27H115.042V92.29C115.042 92.5433 114.976 92.74 114.842 92.88C114.716 93.02 114.526 93.09 114.272 93.09ZM115.042 89.15H116.432C116.846 89.15 117.156 89.0667 117.362 88.9C117.576 88.7333 117.682 88.4833 117.682 88.15C117.682 87.8233 117.576 87.5767 117.362 87.41C117.156 87.2433 116.846 87.16 116.432 87.16H115.042V89.15ZM124.058 93C123.798 93 123.598 92.93 123.458 92.79C123.318 92.65 123.248 92.45 123.248 92.19V86.76C123.248 86.5 123.318 86.3 123.458 86.16C123.598 86.02 123.798 85.95 124.058 85.95H127.548C127.748 85.95 127.898 86.0033 127.998 86.11C128.105 86.21 128.158 86.3567 128.158 86.55C128.158 86.75 128.105 86.9033 127.998 87.01C127.898 87.11 127.748 87.16 127.548 87.16H124.728V88.81H127.318C127.525 88.81 127.678 88.8633 127.778 88.97C127.885 89.07 127.938 89.22 127.938 89.42C127.938 89.62 127.885 89.7733 127.778 89.88C127.678 89.98 127.525 90.03 127.318 90.03H124.728V91.79H127.548C127.748 91.79 127.898 91.8433 127.998 91.95C128.105 92.05 128.158 92.1967 128.158 92.39C128.158 92.59 128.105 92.7433 127.998 92.85C127.898 92.95 127.748 93 127.548 93H124.058ZM134.616 93.11C134.336 93.11 134.049 93.0867 133.756 93.04C133.469 93 133.192 92.94 132.926 92.86C132.666 92.78 132.432 92.68 132.226 92.56C132.079 92.48 131.976 92.3767 131.916 92.25C131.856 92.1167 131.832 91.9833 131.846 91.85C131.866 91.7167 131.916 91.6 131.996 91.5C132.082 91.3933 132.189 91.3267 132.316 91.3C132.449 91.2667 132.596 91.29 132.756 91.37C133.029 91.5233 133.326 91.6367 133.646 91.71C133.972 91.7833 134.296 91.82 134.616 91.82C135.102 91.82 135.449 91.7467 135.656 91.6C135.862 91.4467 135.966 91.2567 135.966 91.03C135.966 90.8367 135.892 90.6833 135.746 90.57C135.599 90.4567 135.342 90.36 134.976 90.28L133.846 90.04C133.206 89.9067 132.729 89.68 132.416 89.36C132.109 89.0333 131.956 88.6067 131.956 88.08C131.956 87.7467 132.026 87.4433 132.166 87.17C132.306 86.8967 132.502 86.66 132.756 86.46C133.009 86.26 133.309 86.1067 133.656 86C134.009 85.8933 134.396 85.84 134.816 85.84C135.189 85.84 135.556 85.8867 135.916 85.98C136.276 86.0667 136.592 86.1967 136.866 86.37C136.999 86.45 137.089 86.5533 137.136 86.68C137.189 86.8 137.206 86.9233 137.186 87.05C137.172 87.17 137.122 87.2767 137.036 87.37C136.956 87.4633 136.852 87.5233 136.726 87.55C136.599 87.5767 136.446 87.5467 136.266 87.46C136.046 87.3467 135.812 87.2633 135.566 87.21C135.319 87.1567 135.066 87.13 134.806 87.13C134.526 87.13 134.286 87.1667 134.086 87.24C133.892 87.3133 133.742 87.4167 133.636 87.55C133.536 87.6833 133.486 87.8367 133.486 88.01C133.486 88.2033 133.556 88.36 133.696 88.48C133.836 88.6 134.079 88.6967 134.426 88.77L135.556 89.01C136.209 89.15 136.696 89.3767 137.016 89.69C137.336 89.9967 137.496 90.4033 137.496 90.91C137.496 91.2433 137.429 91.5467 137.296 91.82C137.162 92.0867 136.969 92.3167 136.716 92.51C136.462 92.7033 136.159 92.8533 135.806 92.96C135.452 93.06 135.056 93.11 134.616 93.11ZM141.522 93.11C141.022 93.11 140.579 93.0467 140.192 92.92C139.812 92.7867 139.492 92.5933 139.232 92.34C138.972 92.0867 138.775 91.77 138.642 91.39C138.515 91.0033 138.452 90.5567 138.452 90.05V86.65C138.452 86.39 138.519 86.1933 138.652 86.06C138.785 85.9267 138.979 85.86 139.232 85.86C139.479 85.86 139.669 85.9267 139.802 86.06C139.935 86.1933 140.002 86.39 140.002 86.65V90.06C140.002 90.6333 140.132 91.0667 140.392 91.36C140.652 91.6467 141.029 91.79 141.522 91.79C142.015 91.79 142.389 91.6467 142.642 91.36C142.902 91.0667 143.032 90.6333 143.032 90.06V86.65C143.032 86.39 143.099 86.1933 143.232 86.06C143.365 85.9267 143.555 85.86 143.802 85.86C144.049 85.86 144.235 85.9267 144.362 86.06C144.495 86.1933 144.562 86.39 144.562 86.65V90.05C144.562 90.7233 144.445 91.29 144.212 91.75C143.985 92.2033 143.645 92.5433 143.192 92.77C142.745 92.9967 142.189 93.11 141.522 93.11ZM146.714 93.09C146.46 93.09 146.267 93.02 146.134 92.88C146 92.74 145.934 92.5433 145.934 92.29V86.74C145.934 86.48 146 86.2833 146.134 86.15C146.274 86.0167 146.47 85.95 146.724 85.95H149.154C149.94 85.95 150.547 86.15 150.974 86.55C151.4 86.9433 151.614 87.4933 151.614 88.2C151.614 88.9067 151.4 89.46 150.974 89.86C150.547 90.26 149.94 90.46 149.154 90.46H147.484V92.29C147.484 92.5433 147.417 92.74 147.284 92.88C147.157 93.02 146.967 93.09 146.714 93.09ZM147.484 89.26H148.894C149.294 89.26 149.597 89.17 149.804 88.99C150.017 88.81 150.124 88.5467 150.124 88.2C150.124 87.8533 150.017 87.5933 149.804 87.42C149.597 87.2467 149.294 87.16 148.894 87.16H147.484V89.26ZM153.384 93C153.124 93 152.924 92.93 152.784 92.79C152.644 92.65 152.574 92.45 152.574 92.19V86.76C152.574 86.5 152.644 86.3 152.784 86.16C152.924 86.02 153.124 85.95 153.384 85.95H156.874C157.074 85.95 157.224 86.0033 157.324 86.11C157.431 86.21 157.484 86.3567 157.484 86.55C157.484 86.75 157.431 86.9033 157.324 87.01C157.224 87.11 157.074 87.16 156.874 87.16H154.054V88.81H156.644C156.851 88.81 157.004 88.8633 157.104 88.97C157.211 89.07 157.264 89.22 157.264 89.42C157.264 89.62 157.211 89.7733 157.104 89.88C157.004 89.98 156.851 90.03 156.644 90.03H154.054V91.79H156.874C157.074 91.79 157.224 91.8433 157.324 91.95C157.431 92.05 157.484 92.1967 157.484 92.39C157.484 92.59 157.431 92.7433 157.324 92.85C157.224 92.95 157.074 93 156.874 93H153.384ZM159.409 93.09C159.156 93.09 158.962 93.02 158.829 92.88C158.696 92.74 158.629 92.5433 158.629 92.29V86.74C158.629 86.48 158.696 86.2833 158.829 86.15C158.969 86.0167 159.166 85.95 159.419 85.95H161.849C162.636 85.95 163.242 86.14 163.669 86.52C164.096 86.9 164.309 87.43 164.309 88.11C164.309 88.55 164.212 88.93 164.019 89.25C163.826 89.57 163.546 89.8167 163.179 89.99C162.819 90.1633 162.376 90.25 161.849 90.25L161.929 90.08H162.339C162.619 90.08 162.862 90.15 163.069 90.29C163.282 90.4233 163.466 90.63 163.619 90.91L164.239 92.06C164.332 92.2267 164.376 92.39 164.369 92.55C164.362 92.71 164.302 92.84 164.189 92.94C164.076 93.04 163.909 93.09 163.689 93.09C163.469 93.09 163.289 93.0433 163.149 92.95C163.016 92.8567 162.896 92.7133 162.789 92.52L161.829 90.75C161.729 90.5633 161.606 90.4367 161.459 90.37C161.319 90.3033 161.146 90.27 160.939 90.27H160.179V92.29C160.179 92.5433 160.112 92.74 159.979 92.88C159.852 93.02 159.662 93.09 159.409 93.09ZM160.179 89.15H161.569C161.982 89.15 162.292 89.0667 162.499 88.9C162.712 88.7333 162.819 88.4833 162.819 88.15C162.819 87.8233 162.712 87.5767 162.499 87.41C162.292 87.2433 161.982 87.16 161.569 87.16H160.179V89.15Z" fill="#777794"/>
<path d="M182.545 93C182.285 93 182.085 92.93 181.945 92.79C181.805 92.65 181.735 92.45 181.735 92.19V86.76C181.735 86.5 181.805 86.3 181.945 86.16C182.085 86.02 182.285 85.95 182.545 85.95H184.495C185.702 85.95 186.632 86.2567 187.285 86.87C187.945 87.4767 188.275 88.3433 188.275 89.47C188.275 90.0367 188.189 90.54 188.015 90.98C187.849 91.4133 187.605 91.78 187.285 92.08C186.965 92.38 186.572 92.61 186.105 92.77C185.639 92.9233 185.102 93 184.495 93H182.545ZM183.285 91.73H184.405C184.785 91.73 185.115 91.6833 185.395 91.59C185.675 91.4967 185.909 91.3567 186.095 91.17C186.282 90.9833 186.422 90.75 186.515 90.47C186.609 90.1833 186.655 89.85 186.655 89.47C186.655 88.71 186.465 88.1467 186.085 87.78C185.712 87.4067 185.152 87.22 184.405 87.22H183.285V91.73ZM190.26 93.09C190.006 93.09 189.813 93.02 189.68 92.88C189.546 92.74 189.48 92.5433 189.48 92.29V86.66C189.48 86.4067 189.546 86.21 189.68 86.07C189.813 85.93 190.006 85.86 190.26 85.86C190.506 85.86 190.696 85.93 190.83 86.07C190.963 86.21 191.03 86.4067 191.03 86.66V92.29C191.03 92.5433 190.963 92.74 190.83 92.88C190.703 93.02 190.513 93.09 190.26 93.09ZM194.968 93.11C194.688 93.11 194.402 93.0867 194.108 93.04C193.822 93 193.545 92.94 193.278 92.86C193.018 92.78 192.785 92.68 192.578 92.56C192.432 92.48 192.328 92.3767 192.268 92.25C192.208 92.1167 192.185 91.9833 192.198 91.85C192.218 91.7167 192.268 91.6 192.348 91.5C192.435 91.3933 192.542 91.3267 192.668 91.3C192.802 91.2667 192.948 91.29 193.108 91.37C193.382 91.5233 193.678 91.6367 193.998 91.71C194.325 91.7833 194.648 91.82 194.968 91.82C195.455 91.82 195.802 91.7467 196.008 91.6C196.215 91.4467 196.318 91.2567 196.318 91.03C196.318 90.8367 196.245 90.6833 196.098 90.57C195.952 90.4567 195.695 90.36 195.328 90.28L194.198 90.04C193.558 89.9067 193.082 89.68 192.768 89.36C192.462 89.0333 192.308 88.6067 192.308 88.08C192.308 87.7467 192.378 87.4433 192.518 87.17C192.658 86.8967 192.855 86.66 193.108 86.46C193.362 86.26 193.662 86.1067 194.008 86C194.362 85.8933 194.748 85.84 195.168 85.84C195.542 85.84 195.908 85.8867 196.268 85.98C196.628 86.0667 196.945 86.1967 197.218 86.37C197.352 86.45 197.442 86.5533 197.488 86.68C197.542 86.8 197.558 86.9233 197.538 87.05C197.525 87.17 197.475 87.2767 197.388 87.37C197.308 87.4633 197.205 87.5233 197.078 87.55C196.952 87.5767 196.798 87.5467 196.618 87.46C196.398 87.3467 196.165 87.2633 195.918 87.21C195.672 87.1567 195.418 87.13 195.158 87.13C194.878 87.13 194.638 87.1667 194.438 87.24C194.245 87.3133 194.095 87.4167 193.988 87.55C193.888 87.6833 193.838 87.8367 193.838 88.01C193.838 88.2033 193.908 88.36 194.048 88.48C194.188 88.6 194.432 88.6967 194.778 88.77L195.908 89.01C196.562 89.15 197.048 89.3767 197.368 89.69C197.688 89.9967 197.848 90.4033 197.848 90.91C197.848 91.2433 197.782 91.5467 197.648 91.82C197.515 92.0867 197.322 92.3167 197.068 92.51C196.815 92.7033 196.512 92.8533 196.158 92.96C195.805 93.06 195.408 93.11 194.968 93.11ZM202.275 93.11C201.515 93.11 200.865 92.96 200.325 92.66C199.785 92.36 199.368 91.94 199.075 91.4C198.788 90.8533 198.645 90.21 198.645 89.47C198.645 88.9167 198.725 88.42 198.885 87.98C199.051 87.5333 199.291 87.1533 199.605 86.84C199.918 86.52 200.298 86.2733 200.745 86.1C201.198 85.9267 201.708 85.84 202.275 85.84C202.608 85.84 202.945 85.8833 203.285 85.97C203.631 86.05 203.931 86.1667 204.185 86.32C204.351 86.4133 204.465 86.53 204.525 86.67C204.585 86.81 204.601 86.95 204.575 87.09C204.555 87.23 204.498 87.35 204.405 87.45C204.318 87.55 204.208 87.6133 204.075 87.64C203.941 87.6667 203.791 87.6367 203.625 87.55C203.425 87.43 203.215 87.3433 202.995 87.29C202.775 87.2367 202.551 87.21 202.325 87.21C201.878 87.21 201.501 87.3 201.195 87.48C200.895 87.6533 200.668 87.9067 200.515 88.24C200.361 88.5733 200.285 88.9833 200.285 89.47C200.285 89.95 200.361 90.36 200.515 90.7C200.668 91.04 200.895 91.3 201.195 91.48C201.501 91.6533 201.878 91.74 202.325 91.74C202.538 91.74 202.755 91.7133 202.975 91.66C203.201 91.6067 203.418 91.5233 203.625 91.41C203.798 91.3233 203.951 91.2933 204.085 91.32C204.225 91.34 204.338 91.4 204.425 91.5C204.518 91.5933 204.575 91.7067 204.595 91.84C204.621 91.9733 204.608 92.1067 204.555 92.24C204.501 92.3733 204.401 92.4867 204.255 92.58C204.008 92.7467 203.705 92.8767 203.345 92.97C202.985 93.0633 202.628 93.11 202.275 93.11ZM208.716 93.11C208.023 93.11 207.413 92.96 206.886 92.66C206.366 92.3533 205.96 91.9267 205.666 91.38C205.38 90.8333 205.236 90.1967 205.236 89.47C205.236 88.9167 205.316 88.42 205.476 87.98C205.643 87.5333 205.88 87.1533 206.186 86.84C206.493 86.52 206.86 86.2733 207.286 86.1C207.72 85.9267 208.196 85.84 208.716 85.84C209.423 85.84 210.036 85.99 210.556 86.29C211.076 86.59 211.48 87.0133 211.766 87.56C212.06 88.1 212.206 88.7333 212.206 89.46C212.206 90.0133 212.123 90.5133 211.956 90.96C211.79 91.4067 211.553 91.79 211.246 92.11C210.94 92.43 210.573 92.6767 210.146 92.85C209.72 93.0233 209.243 93.11 208.716 93.11ZM208.716 91.79C209.11 91.79 209.443 91.7 209.716 91.52C209.996 91.3333 210.21 91.0667 210.356 90.72C210.51 90.3667 210.586 89.95 210.586 89.47C210.586 88.7367 210.423 88.17 210.096 87.77C209.77 87.3633 209.31 87.16 208.716 87.16C208.33 87.16 207.996 87.25 207.716 87.43C207.436 87.61 207.223 87.8733 207.076 88.22C206.93 88.5667 206.856 88.9833 206.856 89.47C206.856 90.1967 207.02 90.7667 207.346 91.18C207.673 91.5867 208.13 91.79 208.716 91.79ZM216.425 93.11C215.925 93.11 215.482 93.0467 215.095 92.92C214.715 92.7867 214.395 92.5933 214.135 92.34C213.875 92.0867 213.679 91.77 213.545 91.39C213.419 91.0033 213.355 90.5567 213.355 90.05V86.65C213.355 86.39 213.422 86.1933 213.555 86.06C213.689 85.9267 213.882 85.86 214.135 85.86C214.382 85.86 214.572 85.9267 214.705 86.06C214.839 86.1933 214.905 86.39 214.905 86.65V90.06C214.905 90.6333 215.035 91.0667 215.295 91.36C215.555 91.6467 215.932 91.79 216.425 91.79C216.919 91.79 217.292 91.6467 217.545 91.36C217.805 91.0667 217.935 90.6333 217.935 90.06V86.65C217.935 86.39 218.002 86.1933 218.135 86.06C218.269 85.9267 218.459 85.86 218.705 85.86C218.952 85.86 219.139 85.9267 219.265 86.06C219.399 86.1933 219.465 86.39 219.465 86.65V90.05C219.465 90.7233 219.349 91.29 219.115 91.75C218.889 92.2033 218.549 92.5433 218.095 92.77C217.649 92.9967 217.092 93.11 216.425 93.11ZM221.557 93.09C221.324 93.09 221.144 93.0267 221.017 92.9C220.897 92.7667 220.837 92.58 220.837 92.34V86.64C220.837 86.3867 220.897 86.1933 221.017 86.06C221.144 85.9267 221.31 85.86 221.517 85.86C221.697 85.86 221.834 85.8967 221.927 85.97C222.027 86.0367 222.14 86.15 222.267 86.31L225.777 90.78H225.507V86.6C225.507 86.3667 225.567 86.1867 225.687 86.06C225.814 85.9267 225.994 85.86 226.227 85.86C226.46 85.86 226.637 85.9267 226.757 86.06C226.884 86.1867 226.947 86.3667 226.947 86.6V92.37C226.947 92.59 226.89 92.7667 226.777 92.9C226.664 93.0267 226.51 93.09 226.317 93.09C226.13 93.09 225.98 93.0533 225.867 92.98C225.76 92.9067 225.644 92.79 225.517 92.63L222.017 88.16H222.277V92.34C222.277 92.58 222.217 92.7667 222.097 92.9C221.977 93.0267 221.797 93.09 221.557 93.09ZM230.826 93.09C230.573 93.09 230.38 93.02 230.246 92.88C230.113 92.74 230.046 92.5433 230.046 92.29V87.23H228.276C228.07 87.23 227.91 87.1733 227.796 87.06C227.683 86.9467 227.626 86.79 227.626 86.59C227.626 86.3833 227.683 86.2267 227.796 86.12C227.91 86.0067 228.07 85.95 228.276 85.95H233.366C233.573 85.95 233.733 86.0067 233.846 86.12C233.96 86.2267 234.016 86.3833 234.016 86.59C234.016 86.79 233.96 86.9467 233.846 87.06C233.733 87.1733 233.573 87.23 233.366 87.23H231.596V92.29C231.596 92.5433 231.53 92.74 231.396 92.88C231.27 93.02 231.08 93.09 230.826 93.09Z" fill="#777794"/>
<path d="M251.908 93C251.648 93 251.448 92.93 251.308 92.79C251.168 92.65 251.098 92.45 251.098 92.19V86.76C251.098 86.5 251.168 86.3 251.308 86.16C251.448 86.02 251.648 85.95 251.908 85.95H255.398C255.598 85.95 255.748 86.0033 255.848 86.11C255.954 86.21 256.008 86.3567 256.008 86.55C256.008 86.75 255.954 86.9033 255.848 87.01C255.748 87.11 255.598 87.16 255.398 87.16H252.578V88.81H255.168C255.374 88.81 255.528 88.8633 255.628 88.97C255.734 89.07 255.788 89.22 255.788 89.42C255.788 89.62 255.734 89.7733 255.628 89.88C255.528 89.98 255.374 90.03 255.168 90.03H252.578V91.79H255.398C255.598 91.79 255.748 91.8433 255.848 91.95C255.954 92.05 256.008 92.1967 256.008 92.39C256.008 92.59 255.954 92.7433 255.848 92.85C255.748 92.95 255.598 93 255.398 93H251.908ZM257.942 93C257.689 93 257.492 92.93 257.352 92.79C257.219 92.65 257.152 92.4567 257.152 92.21V86.72C257.152 86.46 257.219 86.2633 257.352 86.13C257.486 85.9967 257.679 85.93 257.932 85.93C258.179 85.93 258.369 85.9967 258.502 86.13C258.636 86.2633 258.702 86.46 258.702 86.72V91.69H261.382C261.596 91.69 261.759 91.7467 261.872 91.86C261.992 91.9733 262.052 92.1333 262.052 92.34C262.052 92.5533 261.992 92.7167 261.872 92.83C261.759 92.9433 261.596 93 261.382 93H257.942ZM263.695 93C263.435 93 263.235 92.93 263.095 92.79C262.955 92.65 262.885 92.45 262.885 92.19V86.76C262.885 86.5 262.955 86.3 263.095 86.16C263.235 86.02 263.435 85.95 263.695 85.95H267.185C267.385 85.95 267.535 86.0033 267.635 86.11C267.741 86.21 267.795 86.3567 267.795 86.55C267.795 86.75 267.741 86.9033 267.635 87.01C267.535 87.11 267.385 87.16 267.185 87.16H264.365V88.81H266.955C267.161 88.81 267.315 88.8633 267.415 88.97C267.521 89.07 267.575 89.22 267.575 89.42C267.575 89.62 267.521 89.7733 267.415 89.88C267.315 89.98 267.161 90.03 266.955 90.03H264.365V91.79H267.185C267.385 91.79 267.535 91.8433 267.635 91.95C267.741 92.05 267.795 92.1967 267.795 92.39C267.795 92.59 267.741 92.7433 267.635 92.85C267.535 92.95 267.385 93 267.185 93H263.695ZM271.399 93.09C271.146 93.09 270.953 93.02 270.819 92.88C270.686 92.74 270.619 92.5433 270.619 92.29V87.23H268.849C268.643 87.23 268.483 87.1733 268.369 87.06C268.256 86.9467 268.199 86.79 268.199 86.59C268.199 86.3833 268.256 86.2267 268.369 86.12C268.483 86.0067 268.643 85.95 268.849 85.95H273.939C274.146 85.95 274.306 86.0067 274.419 86.12C274.533 86.2267 274.589 86.3833 274.589 86.59C274.589 86.79 274.533 86.9467 274.419 87.06C274.306 87.1733 274.146 87.23 273.939 87.23H272.169V92.29C272.169 92.5433 272.103 92.74 271.969 92.88C271.843 93.02 271.653 93.09 271.399 93.09ZM277.855 93.09C277.601 93.09 277.408 93.02 277.275 92.88C277.141 92.74 277.075 92.5433 277.075 92.29V87.23H275.305C275.098 87.23 274.938 87.1733 274.825 87.06C274.711 86.9467 274.655 86.79 274.655 86.59C274.655 86.3833 274.711 86.2267 274.825 86.12C274.938 86.0067 275.098 85.95 275.305 85.95H280.395C280.601 85.95 280.761 86.0067 280.875 86.12C280.988 86.2267 281.045 86.3833 281.045 86.59C281.045 86.79 280.988 86.9467 280.875 87.06C280.761 87.1733 280.601 87.23 280.395 87.23H278.625V92.29C278.625 92.5433 278.558 92.74 278.425 92.88C278.298 93.02 278.108 93.09 277.855 93.09ZM282.493 93.09C282.24 93.09 282.046 93.02 281.913 92.88C281.78 92.74 281.713 92.5433 281.713 92.29V86.74C281.713 86.48 281.78 86.2833 281.913 86.15C282.053 86.0167 282.25 85.95 282.503 85.95H284.933C285.72 85.95 286.326 86.14 286.753 86.52C287.18 86.9 287.393 87.43 287.393 88.11C287.393 88.55 287.296 88.93 287.103 89.25C286.91 89.57 286.63 89.8167 286.263 89.99C285.903 90.1633 285.46 90.25 284.933 90.25L285.013 90.08H285.423C285.703 90.08 285.946 90.15 286.153 90.29C286.366 90.4233 286.55 90.63 286.703 90.91L287.323 92.06C287.416 92.2267 287.46 92.39 287.453 92.55C287.446 92.71 287.386 92.84 287.273 92.94C287.16 93.04 286.993 93.09 286.773 93.09C286.553 93.09 286.373 93.0433 286.233 92.95C286.1 92.8567 285.98 92.7133 285.873 92.52L284.913 90.75C284.813 90.5633 284.69 90.4367 284.543 90.37C284.403 90.3033 284.23 90.27 284.023 90.27H283.263V92.29C283.263 92.5433 283.196 92.74 283.063 92.88C282.936 93.02 282.746 93.09 282.493 93.09ZM283.263 89.15H284.653C285.066 89.15 285.376 89.0667 285.583 88.9C285.796 88.7333 285.903 88.4833 285.903 88.15C285.903 87.8233 285.796 87.5767 285.583 87.41C285.376 87.2433 285.066 87.16 284.653 87.16H283.263V89.15ZM291.897 93.11C291.204 93.11 290.594 92.96 290.067 92.66C289.547 92.3533 289.14 91.9267 288.847 91.38C288.56 90.8333 288.417 90.1967 288.417 89.47C288.417 88.9167 288.497 88.42 288.657 87.98C288.824 87.5333 289.06 87.1533 289.367 86.84C289.674 86.52 290.04 86.2733 290.467 86.1C290.9 85.9267 291.377 85.84 291.897 85.84C292.604 85.84 293.217 85.99 293.737 86.29C294.257 86.59 294.66 87.0133 294.947 87.56C295.24 88.1 295.387 88.7333 295.387 89.46C295.387 90.0133 295.304 90.5133 295.137 90.96C294.97 91.4067 294.734 91.79 294.427 92.11C294.12 92.43 293.754 92.6767 293.327 92.85C292.9 93.0233 292.424 93.11 291.897 93.11ZM291.897 91.79C292.29 91.79 292.624 91.7 292.897 91.52C293.177 91.3333 293.39 91.0667 293.537 90.72C293.69 90.3667 293.767 89.95 293.767 89.47C293.767 88.7367 293.604 88.17 293.277 87.77C292.95 87.3633 292.49 87.16 291.897 87.16C291.51 87.16 291.177 87.25 290.897 87.43C290.617 87.61 290.404 87.8733 290.257 88.22C290.11 88.5667 290.037 88.9833 290.037 89.47C290.037 90.1967 290.2 90.7667 290.527 91.18C290.854 91.5867 291.31 91.79 291.897 91.79ZM297.306 93.09C297.073 93.09 296.893 93.0267 296.766 92.9C296.646 92.7667 296.586 92.58 296.586 92.34V86.64C296.586 86.3867 296.646 86.1933 296.766 86.06C296.893 85.9267 297.059 85.86 297.266 85.86C297.446 85.86 297.583 85.8967 297.676 85.97C297.776 86.0367 297.889 86.15 298.016 86.31L301.526 90.78H301.256V86.6C301.256 86.3667 301.316 86.1867 301.436 86.06C301.563 85.9267 301.743 85.86 301.976 85.86C302.209 85.86 302.386 85.9267 302.506 86.06C302.633 86.1867 302.696 86.3667 302.696 86.6V92.37C302.696 92.59 302.639 92.7667 302.526 92.9C302.413 93.0267 302.259 93.09 302.066 93.09C301.879 93.09 301.729 93.0533 301.616 92.98C301.509 92.9067 301.393 92.79 301.266 92.63L297.766 88.16H298.026V92.34C298.026 92.58 297.966 92.7667 297.846 92.9C297.726 93.0267 297.546 93.09 297.306 93.09ZM304.895 93.09C304.642 93.09 304.449 93.02 304.315 92.88C304.182 92.74 304.115 92.5433 304.115 92.29V86.66C304.115 86.4067 304.182 86.21 304.315 86.07C304.449 85.93 304.642 85.86 304.895 85.86C305.142 85.86 305.332 85.93 305.465 86.07C305.599 86.21 305.665 86.4067 305.665 86.66V92.29C305.665 92.5433 305.599 92.74 305.465 92.88C305.339 93.02 305.149 93.09 304.895 93.09ZM310.504 93.11C309.744 93.11 309.094 92.96 308.554 92.66C308.014 92.36 307.597 91.94 307.304 91.4C307.017 90.8533 306.874 90.21 306.874 89.47C306.874 88.9167 306.954 88.42 307.114 87.98C307.281 87.5333 307.521 87.1533 307.834 86.84C308.147 86.52 308.527 86.2733 308.974 86.1C309.427 85.9267 309.937 85.84 310.504 85.84C310.837 85.84 311.174 85.8833 311.514 85.97C311.861 86.05 312.161 86.1667 312.414 86.32C312.581 86.4133 312.694 86.53 312.754 86.67C312.814 86.81 312.831 86.95 312.804 87.09C312.784 87.23 312.727 87.35 312.634 87.45C312.547 87.55 312.437 87.6133 312.304 87.64C312.171 87.6667 312.021 87.6367 311.854 87.55C311.654 87.43 311.444 87.3433 311.224 87.29C311.004 87.2367 310.781 87.21 310.554 87.21C310.107 87.21 309.731 87.3 309.424 87.48C309.124 87.6533 308.897 87.9067 308.744 88.24C308.591 88.5733 308.514 88.9833 308.514 89.47C308.514 89.95 308.591 90.36 308.744 90.7C308.897 91.04 309.124 91.3 309.424 91.48C309.731 91.6533 310.107 91.74 310.554 91.74C310.767 91.74 310.984 91.7133 311.204 91.66C311.431 91.6067 311.647 91.5233 311.854 91.41C312.027 91.3233 312.181 91.2933 312.314 91.32C312.454 91.34 312.567 91.4 312.654 91.5C312.747 91.5933 312.804 91.7067 312.824 91.84C312.851 91.9733 312.837 92.1067 312.784 92.24C312.731 92.3733 312.631 92.4867 312.484 92.58C312.237 92.7467 311.934 92.8767 311.574 92.97C311.214 93.0633 310.857 93.11 310.504 93.11ZM313.993 93.09C313.806 93.09 313.653 93.0467 313.533 92.96C313.42 92.8733 313.346 92.7567 313.313 92.61C313.286 92.4633 313.316 92.3 313.403 92.12L315.963 86.51C316.07 86.2833 316.196 86.12 316.343 86.02C316.49 85.9133 316.66 85.86 316.853 85.86C317.046 85.86 317.216 85.9133 317.363 86.02C317.51 86.12 317.633 86.2833 317.733 86.51L320.313 92.12C320.4 92.3 320.43 92.4667 320.403 92.62C320.383 92.7667 320.316 92.8833 320.203 92.97C320.09 93.05 319.943 93.09 319.763 93.09C319.536 93.09 319.36 93.0367 319.233 92.93C319.113 92.8233 319.006 92.6567 318.913 92.43L318.313 91.04L318.933 91.47H314.763L315.383 91.04L314.793 92.43C314.693 92.6633 314.586 92.8333 314.473 92.94C314.366 93.04 314.206 93.09 313.993 93.09ZM316.833 87.6L315.553 90.65L315.283 90.26H318.413L318.143 90.65L316.853 87.6H316.833Z" fill="#777794"/>
<path d="M341.551 93.11C340.791 93.11 340.141 92.96 339.601 92.66C339.061 92.36 338.644 91.94 338.351 91.4C338.064 90.8533 337.921 90.21 337.921 89.47C337.921 88.9167 338.001 88.42 338.161 87.98C338.328 87.5333 338.568 87.1533 338.881 86.84C339.194 86.52 339.574 86.2733 340.021 86.1C340.474 85.9267 340.984 85.84 341.551 85.84C341.884 85.84 342.221 85.8833 342.561 85.97C342.908 86.05 343.208 86.1667 343.461 86.32C343.628 86.4133 343.741 86.53 343.801 86.67C343.861 86.81 343.878 86.95 343.851 87.09C343.831 87.23 343.774 87.35 343.681 87.45C343.594 87.55 343.484 87.6133 343.351 87.64C343.218 87.6667 343.068 87.6367 342.901 87.55C342.701 87.43 342.491 87.3433 342.271 87.29C342.051 87.2367 341.828 87.21 341.601 87.21C341.154 87.21 340.778 87.3 340.471 87.48C340.171 87.6533 339.944 87.9067 339.791 88.24C339.638 88.5733 339.561 88.9833 339.561 89.47C339.561 89.95 339.638 90.36 339.791 90.7C339.944 91.04 340.171 91.3 340.471 91.48C340.778 91.6533 341.154 91.74 341.601 91.74C341.814 91.74 342.031 91.7133 342.251 91.66C342.478 91.6067 342.694 91.5233 342.901 91.41C343.074 91.3233 343.228 91.2933 343.361 91.32C343.501 91.34 343.614 91.4 343.701 91.5C343.794 91.5933 343.851 91.7067 343.871 91.84C343.898 91.9733 343.884 92.1067 343.831 92.24C343.778 92.3733 343.678 92.4867 343.531 92.58C343.284 92.7467 342.981 92.8767 342.621 92.97C342.261 93.0633 341.904 93.11 341.551 93.11ZM347.987 93.11C347.487 93.11 347.044 93.0467 346.657 92.92C346.277 92.7867 345.957 92.5933 345.697 92.34C345.437 92.0867 345.24 91.77 345.107 91.39C344.98 91.0033 344.917 90.5567 344.917 90.05V86.65C344.917 86.39 344.984 86.1933 345.117 86.06C345.25 85.9267 345.444 85.86 345.697 85.86C345.944 85.86 346.134 85.9267 346.267 86.06C346.4 86.1933 346.467 86.39 346.467 86.65V90.06C346.467 90.6333 346.597 91.0667 346.857 91.36C347.117 91.6467 347.494 91.79 347.987 91.79C348.48 91.79 348.854 91.6467 349.107 91.36C349.367 91.0667 349.497 90.6333 349.497 90.06V86.65C349.497 86.39 349.564 86.1933 349.697 86.06C349.83 85.9267 350.02 85.86 350.267 85.86C350.514 85.86 350.7 85.9267 350.827 86.06C350.96 86.1933 351.027 86.39 351.027 86.65V90.05C351.027 90.7233 350.91 91.29 350.677 91.75C350.45 92.2033 350.11 92.5433 349.657 92.77C349.21 92.9967 348.654 93.11 347.987 93.11ZM353.178 93.09C352.925 93.09 352.732 93.02 352.598 92.88C352.465 92.74 352.398 92.5433 352.398 92.29V86.74C352.398 86.48 352.465 86.2833 352.598 86.15C352.738 86.0167 352.935 85.95 353.188 85.95H355.618C356.405 85.95 357.012 86.14 357.438 86.52C357.865 86.9 358.078 87.43 358.078 88.11C358.078 88.55 357.982 88.93 357.788 89.25C357.595 89.57 357.315 89.8167 356.948 89.99C356.588 90.1633 356.145 90.25 355.618 90.25L355.698 90.08H356.108C356.388 90.08 356.632 90.15 356.838 90.29C357.052 90.4233 357.235 90.63 357.388 90.91L358.008 92.06C358.102 92.2267 358.145 92.39 358.138 92.55C358.132 92.71 358.072 92.84 357.958 92.94C357.845 93.04 357.678 93.09 357.458 93.09C357.238 93.09 357.058 93.0433 356.918 92.95C356.785 92.8567 356.665 92.7133 356.558 92.52L355.598 90.75C355.498 90.5633 355.375 90.4367 355.228 90.37C355.088 90.3033 354.915 90.27 354.708 90.27H353.948V92.29C353.948 92.5433 353.882 92.74 353.748 92.88C353.622 93.02 353.432 93.09 353.178 93.09ZM353.948 89.15H355.338C355.752 89.15 356.062 89.0667 356.268 88.9C356.482 88.7333 356.588 88.4833 356.588 88.15C356.588 87.8233 356.482 87.5767 356.268 87.41C356.062 87.2433 355.752 87.16 355.338 87.16H353.948V89.15ZM359.425 93.09C359.238 93.09 359.085 93.0467 358.965 92.96C358.851 92.8733 358.778 92.7567 358.745 92.61C358.718 92.4633 358.748 92.3 358.835 92.12L361.395 86.51C361.501 86.2833 361.628 86.12 361.775 86.02C361.921 85.9133 362.091 85.86 362.285 85.86C362.478 85.86 362.648 85.9133 362.795 86.02C362.941 86.12 363.065 86.2833 363.165 86.51L365.745 92.12C365.831 92.3 365.861 92.4667 365.835 92.62C365.815 92.7667 365.748 92.8833 365.635 92.97C365.521 93.05 365.375 93.09 365.195 93.09C364.968 93.09 364.791 93.0367 364.665 92.93C364.545 92.8233 364.438 92.6567 364.345 92.43L363.745 91.04L364.365 91.47H360.195L360.815 91.04L360.225 92.43C360.125 92.6633 360.018 92.8333 359.905 92.94C359.798 93.04 359.638 93.09 359.425 93.09ZM362.265 87.6L360.985 90.65L360.715 90.26H363.845L363.575 90.65L362.285 87.6H362.265ZM372.967 93.11C372.207 93.11 371.557 92.96 371.017 92.66C370.477 92.36 370.06 91.94 369.767 91.4C369.48 90.8533 369.337 90.21 369.337 89.47C369.337 88.9167 369.417 88.42 369.577 87.98C369.744 87.5333 369.984 87.1533 370.297 86.84C370.61 86.52 370.99 86.2733 371.437 86.1C371.89 85.9267 372.4 85.84 372.967 85.84C373.3 85.84 373.637 85.8833 373.977 85.97C374.324 86.05 374.624 86.1667 374.877 86.32C375.044 86.4133 375.157 86.53 375.217 86.67C375.277 86.81 375.294 86.95 375.267 87.09C375.247 87.23 375.19 87.35 375.097 87.45C375.01 87.55 374.9 87.6133 374.767 87.64C374.634 87.6667 374.484 87.6367 374.317 87.55C374.117 87.43 373.907 87.3433 373.687 87.29C373.467 87.2367 373.244 87.21 373.017 87.21C372.57 87.21 372.194 87.3 371.887 87.48C371.587 87.6533 371.36 87.9067 371.207 88.24C371.054 88.5733 370.977 88.9833 370.977 89.47C370.977 89.95 371.054 90.36 371.207 90.7C371.36 91.04 371.587 91.3 371.887 91.48C372.194 91.6533 372.57 91.74 373.017 91.74C373.23 91.74 373.447 91.7133 373.667 91.66C373.894 91.6067 374.11 91.5233 374.317 91.41C374.49 91.3233 374.644 91.2933 374.777 91.32C374.917 91.34 375.03 91.4 375.117 91.5C375.21 91.5933 375.267 91.7067 375.287 91.84C375.314 91.9733 375.3 92.1067 375.247 92.24C375.194 92.3733 375.094 92.4867 374.947 92.58C374.7 92.7467 374.397 92.8767 374.037 92.97C373.677 93.0633 373.32 93.11 372.967 93.11ZM376.456 93.09C376.269 93.09 376.116 93.0467 375.996 92.96C375.883 92.8733 375.809 92.7567 375.776 92.61C375.749 92.4633 375.779 92.3 375.866 92.12L378.426 86.51C378.533 86.2833 378.659 86.12 378.806 86.02C378.953 85.9133 379.123 85.86 379.316 85.86C379.509 85.86 379.679 85.9133 379.826 86.02C379.973 86.12 380.096 86.2833 380.196 86.51L382.776 92.12C382.863 92.3 382.893 92.4667 382.866 92.62C382.846 92.7667 382.779 92.8833 382.666 92.97C382.553 93.05 382.406 93.09 382.226 93.09C381.999 93.09 381.823 93.0367 381.696 92.93C381.576 92.8233 381.469 92.6567 381.376 92.43L380.776 91.04L381.396 91.47H377.226L377.846 91.04L377.256 92.43C377.156 92.6633 377.049 92.8333 376.936 92.94C376.829 93.04 376.669 93.09 376.456 93.09ZM379.296 87.6L378.016 90.65L377.746 90.26H380.876L380.606 90.65L379.316 87.6H379.296ZM386.217 93.11C385.937 93.11 385.651 93.0867 385.357 93.04C385.071 93 384.794 92.94 384.527 92.86C384.267 92.78 384.034 92.68 383.827 92.56C383.681 92.48 383.577 92.3767 383.517 92.25C383.457 92.1167 383.434 91.9833 383.447 91.85C383.467 91.7167 383.517 91.6 383.597 91.5C383.684 91.3933 383.791 91.3267 383.917 91.3C384.051 91.2667 384.197 91.29 384.357 91.37C384.631 91.5233 384.927 91.6367 385.247 91.71C385.574 91.7833 385.897 91.82 386.217 91.82C386.704 91.82 387.051 91.7467 387.257 91.6C387.464 91.4467 387.567 91.2567 387.567 91.03C387.567 90.8367 387.494 90.6833 387.347 90.57C387.201 90.4567 386.944 90.36 386.577 90.28L385.447 90.04C384.807 89.9067 384.331 89.68 384.017 89.36C383.711 89.0333 383.557 88.6067 383.557 88.08C383.557 87.7467 383.627 87.4433 383.767 87.17C383.907 86.8967 384.104 86.66 384.357 86.46C384.611 86.26 384.911 86.1067 385.257 86C385.611 85.8933 385.997 85.84 386.417 85.84C386.791 85.84 387.157 85.8867 387.517 85.98C387.877 86.0667 388.194 86.1967 388.467 86.37C388.601 86.45 388.691 86.5533 388.737 86.68C388.791 86.8 388.807 86.9233 388.787 87.05C388.774 87.17 388.724 87.2767 388.637 87.37C388.557 87.4633 388.454 87.5233 388.327 87.55C388.201 87.5767 388.047 87.5467 387.867 87.46C387.647 87.3467 387.414 87.2633 387.167 87.21C386.921 87.1567 386.667 87.13 386.407 87.13C386.127 87.13 385.887 87.1667 385.687 87.24C385.494 87.3133 385.344 87.4167 385.237 87.55C385.137 87.6833 385.087 87.8367 385.087 88.01C385.087 88.2033 385.157 88.36 385.297 88.48C385.437 88.6 385.681 88.6967 386.027 88.77L387.157 89.01C387.811 89.15 388.297 89.3767 388.617 89.69C388.937 89.9967 389.097 90.4033 389.097 90.91C389.097 91.2433 389.031 91.5467 388.897 91.82C388.764 92.0867 388.571 92.3167 388.317 92.51C388.064 92.7033 387.761 92.8533 387.407 92.96C387.054 93.06 386.657 93.11 386.217 93.11ZM390.235 93.09C390.049 93.09 389.895 93.0467 389.775 92.96C389.662 92.8733 389.589 92.7567 389.555 92.61C389.529 92.4633 389.559 92.3 389.645 92.12L392.205 86.51C392.312 86.2833 392.439 86.12 392.585 86.02C392.732 85.9133 392.902 85.86 393.095 85.86C393.289 85.86 393.459 85.9133 393.605 86.02C393.752 86.12 393.875 86.2833 393.975 86.51L396.555 92.12C396.642 92.3 396.672 92.4667 396.645 92.62C396.625 92.7667 396.559 92.8833 396.445 92.97C396.332 93.05 396.185 93.09 396.005 93.09C395.779 93.09 395.602 93.0367 395.475 92.93C395.355 92.8233 395.249 92.6567 395.155 92.43L394.555 91.04L395.175 91.47H391.005L391.625 91.04L391.035 92.43C390.935 92.6633 390.829 92.8333 390.715 92.94C390.609 93.04 390.449 93.09 390.235 93.09ZM393.075 87.6L391.795 90.65L391.525 90.26H394.655L394.385 90.65L393.095 87.6H393.075ZM401.167 93C400.907 93 400.707 92.93 400.567 92.79C400.427 92.65 400.357 92.45 400.357 92.19V86.76C400.357 86.5 400.427 86.3 400.567 86.16C400.707 86.02 400.907 85.95 401.167 85.95H404.657C404.857 85.95 405.007 86.0033 405.107 86.11C405.214 86.21 405.267 86.3567 405.267 86.55C405.267 86.75 405.214 86.9033 405.107 87.01C405.007 87.11 404.857 87.16 404.657 87.16H401.837V88.81H404.427C404.634 88.81 404.787 88.8633 404.887 88.97C404.994 89.07 405.047 89.22 405.047 89.42C405.047 89.62 404.994 89.7733 404.887 89.88C404.787 89.98 404.634 90.03 404.427 90.03H401.837V91.79H404.657C404.857 91.79 405.007 91.8433 405.107 91.95C405.214 92.05 405.267 92.1967 405.267 92.39C405.267 92.59 405.214 92.7433 405.107 92.85C405.007 92.95 404.857 93 404.657 93H401.167ZM412.625 93.11C411.865 93.11 411.215 92.96 410.675 92.66C410.135 92.36 409.718 91.94 409.425 91.4C409.138 90.8533 408.995 90.21 408.995 89.47C408.995 88.9167 409.075 88.42 409.235 87.98C409.402 87.5333 409.642 87.1533 409.955 86.84C410.268 86.52 410.648 86.2733 411.095 86.1C411.548 85.9267 412.058 85.84 412.625 85.84C412.958 85.84 413.295 85.8833 413.635 85.97C413.982 86.05 414.282 86.1667 414.535 86.32C414.702 86.4133 414.815 86.53 414.875 86.67C414.935 86.81 414.952 86.95 414.925 87.09C414.905 87.23 414.848 87.35 414.755 87.45C414.668 87.55 414.558 87.6133 414.425 87.64C414.292 87.6667 414.142 87.6367 413.975 87.55C413.775 87.43 413.565 87.3433 413.345 87.29C413.125 87.2367 412.902 87.21 412.675 87.21C412.228 87.21 411.852 87.3 411.545 87.48C411.245 87.6533 411.018 87.9067 410.865 88.24C410.712 88.5733 410.635 88.9833 410.635 89.47C410.635 89.95 410.712 90.36 410.865 90.7C411.018 91.04 411.245 91.3 411.545 91.48C411.852 91.6533 412.228 91.74 412.675 91.74C412.888 91.74 413.105 91.7133 413.325 91.66C413.552 91.6067 413.768 91.5233 413.975 91.41C414.148 91.3233 414.302 91.2933 414.435 91.32C414.575 91.34 414.688 91.4 414.775 91.5C414.868 91.5933 414.925 91.7067 414.945 91.84C414.972 91.9733 414.958 92.1067 414.905 92.24C414.852 92.3733 414.752 92.4867 414.605 92.58C414.358 92.7467 414.055 92.8767 413.695 92.97C413.335 93.0633 412.978 93.11 412.625 93.11ZM419.067 93.11C418.374 93.11 417.764 92.96 417.237 92.66C416.717 92.3533 416.31 91.9267 416.017 91.38C415.73 90.8333 415.587 90.1967 415.587 89.47C415.587 88.9167 415.667 88.42 415.827 87.98C415.994 87.5333 416.23 87.1533 416.537 86.84C416.844 86.52 417.21 86.2733 417.637 86.1C418.07 85.9267 418.547 85.84 419.067 85.84C419.774 85.84 420.387 85.99 420.907 86.29C421.427 86.59 421.83 87.0133 422.117 87.56C422.41 88.1 422.557 88.7333 422.557 89.46C422.557 90.0133 422.474 90.5133 422.307 90.96C422.14 91.4067 421.904 91.79 421.597 92.11C421.29 92.43 420.924 92.6767 420.497 92.85C420.07 93.0233 419.594 93.11 419.067 93.11ZM419.067 91.79C419.46 91.79 419.794 91.7 420.067 91.52C420.347 91.3333 420.56 91.0667 420.707 90.72C420.86 90.3667 420.937 89.95 420.937 89.47C420.937 88.7367 420.774 88.17 420.447 87.77C420.12 87.3633 419.66 87.16 419.067 87.16C418.68 87.16 418.347 87.25 418.067 87.43C417.787 87.61 417.574 87.8733 417.427 88.22C417.28 88.5667 417.207 88.9833 417.207 89.47C417.207 90.1967 417.37 90.7667 417.697 91.18C418.024 91.5867 418.48 91.79 419.067 91.79ZM424.536 93.09C424.283 93.09 424.089 93.02 423.956 92.88C423.823 92.74 423.756 92.5433 423.756 92.29V86.74C423.756 86.48 423.823 86.2833 423.956 86.15C424.096 86.0167 424.293 85.95 424.546 85.95H426.976C427.763 85.95 428.369 86.14 428.796 86.52C429.223 86.9 429.436 87.43 429.436 88.11C429.436 88.55 429.339 88.93 429.146 89.25C428.953 89.57 428.673 89.8167 428.306 89.99C427.946 90.1633 427.503 90.25 426.976 90.25L427.056 90.08H427.466C427.746 90.08 427.989 90.15 428.196 90.29C428.409 90.4233 428.593 90.63 428.746 90.91L429.366 92.06C429.459 92.2267 429.503 92.39 429.496 92.55C429.489 92.71 429.429 92.84 429.316 92.94C429.203 93.04 429.036 93.09 428.816 93.09C428.596 93.09 428.416 93.0433 428.276 92.95C428.143 92.8567 428.023 92.7133 427.916 92.52L426.956 90.75C426.856 90.5633 426.733 90.4367 426.586 90.37C426.446 90.3033 426.273 90.27 426.066 90.27H425.306V92.29C425.306 92.5433 425.239 92.74 425.106 92.88C424.979 93.02 424.789 93.09 424.536 93.09ZM425.306 89.15H426.696C427.109 89.15 427.419 89.0667 427.626 88.9C427.839 88.7333 427.946 88.4833 427.946 88.15C427.946 87.8233 427.839 87.5767 427.626 87.41C427.419 87.2433 427.109 87.16 426.696 87.16H425.306V89.15ZM431.499 93.09C431.245 93.09 431.052 93.02 430.919 92.88C430.785 92.74 430.719 92.5433 430.719 92.29V86.74C430.719 86.48 430.785 86.2833 430.919 86.15C431.059 86.0167 431.255 85.95 431.509 85.95H433.939C434.725 85.95 435.332 86.15 435.759 86.55C436.185 86.9433 436.399 87.4933 436.399 88.2C436.399 88.9067 436.185 89.46 435.759 89.86C435.332 90.26 434.725 90.46 433.939 90.46H432.269V92.29C432.269 92.5433 432.202 92.74 432.069 92.88C431.942 93.02 431.752 93.09 431.499 93.09ZM432.269 89.26H433.679C434.079 89.26 434.382 89.17 434.589 88.99C434.802 88.81 434.909 88.5467 434.909 88.2C434.909 87.8533 434.802 87.5933 434.589 87.42C434.382 87.2467 434.079 87.16 433.679 87.16H432.269V89.26ZM440.6 93.11C439.907 93.11 439.297 92.96 438.77 92.66C438.25 92.3533 437.843 91.9267 437.55 91.38C437.263 90.8333 437.12 90.1967 437.12 89.47C437.12 88.9167 437.2 88.42 437.36 87.98C437.527 87.5333 437.763 87.1533 438.07 86.84C438.377 86.52 438.743 86.2733 439.17 86.1C439.603 85.9267 440.08 85.84 440.6 85.84C441.307 85.84 441.92 85.99 442.44 86.29C442.96 86.59 443.363 87.0133 443.65 87.56C443.943 88.1 444.09 88.7333 444.09 89.46C444.09 90.0133 444.007 90.5133 443.84 90.96C443.673 91.4067 443.437 91.79 443.13 92.11C442.823 92.43 442.457 92.6767 442.03 92.85C441.603 93.0233 441.127 93.11 440.6 93.11ZM440.6 91.79C440.993 91.79 441.327 91.7 441.6 91.52C441.88 91.3333 442.093 91.0667 442.24 90.72C442.393 90.3667 442.47 89.95 442.47 89.47C442.47 88.7367 442.307 88.17 441.98 87.77C441.653 87.3633 441.193 87.16 440.6 87.16C440.213 87.16 439.88 87.25 439.6 87.43C439.32 87.61 439.107 87.8733 438.96 88.22C438.813 88.5667 438.74 88.9833 438.74 89.47C438.74 90.1967 438.903 90.7667 439.23 91.18C439.557 91.5867 440.013 91.79 440.6 91.79Z" fill="#777794"/>
</g>
<defs>
<filter id="filter0_d_111_4404" x="0" y="71" width="375" height="39" filterUnits="userSpaceOnUse" color-interpolation-filters="sRGB">
<feFlood flood-opacity="0" result="BackgroundImageFix"/>
<feColorMatrix in="SourceAlpha" type="matrix" values="0 0 0 0 0 0 0 0 0 0 0 0 0 0 0 0 0 0 127 0" result="hardAlpha"/>
<feOffset dy="1"/>
<feComposite in2="hardAlpha" operator="out"/>
<feColorMatrix type="matrix" values="0 0 0 0 0.921569 0 0 0 0 0.921569 0 0 0 0 0.960784 0 0 0 1 0"/>
<feBlend mode="normal" in2="BackgroundImageFix" result="effect1_dropShadow_111_4404"/>
<feBlend mode="normal" in="SourceGraphic" in2="effect1_dropShadow_111_4404" result="shape"/>
</filter>
<clipPath id="clip0_111_4404">
<rect width="375" height="38" fill="white" transform="translate(0 71)"/>
</clipPath>
</defs>
</svg>
