<svg width="375" height="44" viewBox="0 0 375 44" fill="none" xmlns="http://www.w3.org/2000/svg">
<path d="M318.731 18.2205C319.035 18.4297 319.082 18.8568 318.852 19.1447L312.683 26.8423C312.16 27.497 311.167 27.497 310.644 26.8423L304.475 19.1447C304.244 18.8568 304.292 18.4296 304.595 18.2201C305.671 17.4777 308.214 16 311.663 16C315.109 16 317.655 17.4782 318.731 18.2205Z" fill="#667080"/>
<path d="M353.663 17.6667C353.663 17.1144 353.216 16.6667 352.663 16.6667H351.663V15.3334H347.663V16.6667H346.663C346.111 16.6667 345.663 17.1144 345.663 17.6667V27.6667C345.663 28.219 346.111 28.6667 346.663 28.6667H352.663C353.216 28.6667 353.663 28.219 353.663 27.6667V17.6667Z" fill="#667080"/>
<path d="M334.525 16.4714C334.945 16.0515 335.663 16.3489 335.663 16.9429V27.3334C335.663 28.0698 335.066 28.6667 334.33 28.6667H323.939C323.346 28.6667 323.048 27.9486 323.468 27.5287L334.525 16.4714Z" fill="#667080"/>
<circle cx="187" cy="22" r="9" fill="#BAC0CA"/>
</svg>
